<?xml version="1.0" encoding="utf-8"?>
<!-- Generator: Adobe Illustrator 16.0.1, SVG Export Plug-In . SVG Version: 6.00 Build 0)  -->
<!DOCTYPE svg PUBLIC "-//W3C//DTD SVG 1.1//EN" "http://www.w3.org/Graphics/SVG/1.1/DTD/svg11.dtd">
<svg version="1.1" id="Layer_1" xmlns="http://www.w3.org/2000/svg" xmlns:xlink="http://www.w3.org/1999/xlink" x="0px" y="0px"
	 width="90px" height="90px" viewBox="0 0 90 90" enable-background="new 0 0 90 90" xml:space="preserve">
<g id="Icon" display="none">
	<rect x="-6" y="-6" display="inline" fill="#48CCBA" width="102" height="102"/>
	<path display="inline" fill="#48CCBA" d="M6.325,15.392c-0.252-0.527-1.275-2.231,0-2.833c1.275-0.602,1.912,1.417,3.559,0.726
		c1.647-0.69,0.212-2.762,1.718-2.904c1.506-0.142,1.789,2.32,2.692,2.16c1.629-0.177,0.726-2.532,2.461-2.815
		c1.735-0.283,2.072,2.072,3.293,1.93c1.222-0.142,1.24-2.958,2.302-2.993c1.062-0.036,1.771,2.125,2.939,1.983
		c1.169-0.142,1.222-2.904,2.302-2.94c1.08-0.035,1.718,2.161,2.815,2.072c1.098-0.089,1.081-2.745,2.072-2.78
		c0.992-0.036,2.037,2.089,2.851,2.089c0.815,0,1.151-3.188,2.426-3.223c1.275-0.036,1.913,2.354,2.869,2.267
		c0.957-0.089,1.098-2.904,2.515-2.922s1.594,2.143,2.993,2.001c1.397-0.142,0.654-2.585,2.071-2.887
		c1.417-0.301,1.559,2.072,2.957,1.931c1.398-0.142,0.709-2.674,2.125-2.887c1.417-0.212,1.789,2.143,3.082,1.948
		c1.292-0.195,0.867-2.78,2.213-3.01s1.665,2.337,2.904,2.231c1.238-0.106,1.222-2.922,2.55-3.011
		c1.327-0.088,1.718,2.178,2.922,2.001c1.204-0.177,1.045-2.922,1.877-2.939c0.833-0.018,2.853,0.372,3.011,0.992
		c0.159,0.62-0.814,2.136-0.779,2.585C71.12,5.917,74.061,6.095,74.29,7.6c0.212,1.718-1.913,1.523-1.858,2.691
		c0.053,1.169,2.637,2.054,2.655,3.082c0,0.992-1.647,2.249-1.647,2.993c0,0.744,2.656,2.532,2.729,3.312
		c0.07,0.779-1.523,1.895-1.506,3.134s2.515,2.125,2.586,2.975c0.124,1.239-1.771,2.461-1.771,2.993
		c-0.018,0.566,2.887,2.143,2.853,3.188c-0.035,1.044-1.611,2.089-1.629,2.957c-0.019,0.868,2.479,1.753,2.55,3.063
		c0.07,1.311-1.239,6.251-1.134,8.766c0.266,5.137,4.569,7.738,4.692,9.882c0.125,2.144-1.718,2.408-1.718,3.151
		c0,0.744,2.585,1.982,2.603,3.152c0.019,1.168-1.946,2.604-1.93,3.275c0.018,0.672,2.799,1.947,3.01,2.656
		c0.213,0.708,0.303,2.213,0.195,2.779c0,0-0.39,1.01-0.955,0.922c-0.568-0.09-1.365-0.744-2.037-0.762
		c-0.674-0.019-1.506,3.275-2.763,3.293c-1.258,0.019-1.487-2.427-2.479-2.391c-1.451,0.053-0.813,2.957-2.779,3.205
		c-1.967,0.248-1.559-2.303-3.062-2.249c-1.506,0.054-0.674,2.851-2.338,3.116s-1.522-2.319-2.834-2.213
		c-1.311,0.104-1.15,2.957-2.302,3.099c-0.976,0.124-1.7-2.497-2.853-2.214c-1.149,0.283-0.762,2.779-2.194,2.939
		c-1.435,0.16-1.7-2.496-2.815-2.248c-1.115,0.246-0.371,3.045-2.338,3.363c-1.966,0.318-1.293-2.496-2.833-2.248
		c-1.54,0.247-0.69,2.779-2.551,2.887c-1.858,0.104-1.718-2.18-3.01-2.021c-1.292,0.16-0.39,2.993-2.16,2.993
		c-1.771,0-1.824-2.497-2.993-2.09c-1.169,0.406-0.177,2.249-1.983,2.939s-1.611-2.23-3.188-1.947s-0.195,2.798-2.143,3.045
		c-1.948,0.248-1.736-2.531-2.975-2.354c-1.24,0.177-0.833,3.046-2.603,3.116c-1.771,0.07-1.435-2.213-2.851-2.105
		c-1.417,0.104-0.762,2.727-1.753,2.867c-0.991,0.141-3.169,0.018-3.205-1.238c-0.036-1.258,1.027-1.859,0.372-2.408
		c-0.655-0.549-2.231,0.266-2.426-0.479c-0.566-2.231,1.789-2.407,1.576-3.506c-0.212-1.099-2.55-2.055-2.55-3.294
		c0-1.238,1.47-1.842,1.452-3.1s-2.585-1.664-2.762-3.223c-0.177-1.559,1.771-3.541,1.576-6.535
		c-0.035-8.162-4.533-9.402-4.71-11.899c-0.124-1.683,1.824-1.629,1.753-2.992c-0.088-1.877-2.975-1.594-3.117-2.851
		c-0.142-1.257,2.001-2.001,1.842-3.276c-0.213-1.913-2.267-1.062-2.833-2.922c-0.566-1.86,1.948-2.409,1.842-3.684
		s-2.904-0.921-2.94-2.231c-0.035-1.311,1.771-2.975,1.665-3.737c-0.142-1.204-2.568-1.965-2.621-3.117
		c-0.053-1.151,2.178-2.231,2.125-3.24c-0.053-1.01-2.993-2.125-3.046-2.833C5.971,17.163,6.577,15.918,6.325,15.392z"/>
	<polygon display="inline" fill="#FFFFFF" points="13.833,17.092 66.25,7.6 76.875,67.241 24.458,76.592 	"/>
	<g id="Stamp" display="inline" opacity="0.3">
		
			<linearGradient id="SVGID_1_" gradientUnits="userSpaceOnUse" x1="275.3672" y1="-336.8418" x2="354.1289" y2="-336.8418" gradientTransform="matrix(1 0 0 -1 -274 -273)">
			<stop  offset="0.8829" style="stop-color:#000000"/>
			<stop  offset="1" style="stop-color:#000000;stop-opacity:0"/>
		</linearGradient>
		<path fill="url(#SVGID_1_)" d="M26.725,89.2c-13.982,0-25.358-11.376-25.358-25.358s11.376-25.358,25.358-25.358
			s25.358,11.375,25.358,25.358S40.708,89.2,26.725,89.2z M26.725,39.617C13.367,39.617,2.5,50.484,2.5,63.842
			c0,13.358,10.867,24.225,24.225,24.225c13.357,0,24.225-10.866,24.225-24.225C50.95,50.484,40.083,39.617,26.725,39.617z
			 M26.725,86.934c-12.733,0-23.092-10.358-23.092-23.092c0-12.732,10.359-23.092,23.092-23.092s23.091,10.359,23.091,23.092
			C49.816,76.575,39.458,86.934,26.725,86.934z M26.725,41.883c-12.108,0-21.958,9.85-21.958,21.958S14.617,85.8,26.725,85.8
			s21.958-9.85,21.958-21.958C48.684,51.734,38.833,41.883,26.725,41.883z M26.725,79.85c-8.827,0-16.008-7.182-16.008-16.008
			s7.181-16.009,16.008-16.009c8.827,0,16.008,7.183,16.008,16.009S35.552,79.85,26.725,79.85z M26.725,48.967
			c-8.202,0-14.875,6.674-14.875,14.875c0,8.202,6.673,14.875,14.875,14.875c8.202,0,14.875-6.673,14.875-14.875
			C41.6,55.641,34.927,48.967,26.725,48.967z M26.725,77.675c-7.628,0-13.834-6.204-13.834-13.833
			c0-7.628,6.206-13.834,13.834-13.834s13.834,6.206,13.834,13.834C40.559,71.471,34.353,77.675,26.725,77.675z M26.725,51.143
			c-7.003,0-12.701,5.696-12.701,12.699c0,7.002,5.697,12.7,12.701,12.7c7.003,0,12.701-5.698,12.701-12.7
			C39.426,56.839,33.728,51.143,26.725,51.143z M54.711,48.514c2.066-0.035,4.784-0.41,7.662-0.806
			c2.701-0.37,5.495-0.755,7.645-0.824c4.299-0.134,7.4,0.345,7.434,0.351l0.124-0.783c-0.032-0.006-3.197-0.499-7.583-0.359
			c-2.19,0.071-5.006,0.458-7.727,0.832c-2.854,0.393-5.55,0.762-7.567,0.799c-2.819,0.026-6.999-0.578-9.226-0.938
			c0.279,0.307,0.551,0.618,0.816,0.94c2.253,0.351,5.582,0.793,8.08,0.793C54.484,48.518,54.6,48.516,54.711,48.514z
			 M40.375,42.488c3.916,0.67,17.045,1.025,17.162,1.025c3.263,0,6.079-0.192,7.886-0.455c3.058-0.444,5.696-1.077,13.123,0.145
			l0.129-0.774c-7.55-1.244-10.245-0.836-13.364-0.381c-1.845,0.269-3.926,0.623-7.346,0.582
			c-7.658-0.049-15.552-0.705-19.085-1.037C39.39,41.874,39.887,42.174,40.375,42.488z M55.593,66.076
			c2.539,0,5.845-0.227,8.792-1.146c4.075-1.271,8.533-0.557,10.928-0.172c1.084,0.176,1.578,0.249,1.871,0.178l-0.19-0.771
			c-0.161,0.037-0.871-0.08-1.556-0.188c-2.457-0.396-7.035-1.135-11.289,0.195c-4.629,1.446-10.334,1.109-12.099,0.958
			c-0.013,0.267-0.036,0.529-0.06,0.794C52.7,65.986,53.986,66.076,55.593,66.076z M77.266,69.297l-0.23-0.462l-0.004-0.282
			c-0.09-0.006-0.446-0.06-0.797-0.119c-1.992-0.342-7.285-1.246-12.424,0.125c-4.955,1.32-10.354,1.164-12.395,1.043
			c-0.061,0.262-0.124,0.523-0.191,0.782c0.635,0.041,1.643,0.089,2.904,0.089c2.65,0,6.377-0.212,9.887-1.147
			c4.975-1.324,10.139-0.441,12.086-0.109C76.917,69.354,77.091,69.381,77.266,69.297z M59.857,82.51
			c-5.659,1.293-12.349-0.187-15.053-0.91c-0.216,0.221-0.438,0.435-0.663,0.646c1.753,0.5,6.056,1.576,10.684,1.576
			c1.729,0,3.507-0.15,5.208-0.54c7.566-1.729,17.096-1.214,18.424-0.657l0.305-0.732C77.104,81.197,67.332,80.8,59.857,82.51z
			 M61.941,51.496c-3.371,1.158-10.127,0.369-13.115-0.064c0.162,0.286,0.316,0.577,0.468,0.873c1.907,0.264,4.83,0.592,7.604,0.592
			c1.988,0,3.898-0.168,5.302-0.649c4.536-1.56,14.962-0.794,15.562-0.63l0.209-0.766C77.057,50.602,66.564,49.907,61.941,51.496z
			 M79.654,77.725c-4.403-0.76-8.562-1.479-17.934,0.105c-6.837,1.154-11.598,0.314-13.707-0.234
			c-0.154,0.235-0.312,0.473-0.474,0.702c1.321,0.375,3.851,0.913,7.455,0.913c1.973,0,4.267-0.161,6.856-0.6
			c9.236-1.561,13.146-0.885,17.668-0.106l0.475,0.082l0.135-0.78L79.654,77.725z M63.628,86.486
			c-2.976,0.414-5.784,0.805-7.95,0.899c-2.246,0.097-5.043-0.382-8.005-0.89c-1.379-0.237-2.806-0.482-4.179-0.665
			c-1.255-0.167-2.493-0.271-3.591-0.333c-0.421,0.257-0.852,0.499-1.289,0.732c1.33,0.049,3.037,0.154,4.775,0.387
			c1.358,0.182,2.778,0.425,4.15,0.66c2.729,0.47,5.32,0.916,7.52,0.916c0.224,0,0.441-0.006,0.655-0.016
			c2.202-0.098,5.03-0.49,8.022-0.906c5.439-0.758,11.603-1.613,13.967-0.545l0.326-0.723
			C75.458,84.839,69.443,85.676,63.628,86.486z M62.648,74.288c7.559-1.597,13.129-0.923,13.186-0.915l0.1-0.788
			c-0.058-0.007-5.752-0.696-13.449,0.927c-5.516,1.164-10.256,0.635-12.428,0.262c-0.108,0.254-0.226,0.504-0.342,0.752
			c1.182,0.219,3.21,0.502,5.794,0.502C57.59,75.025,60.025,74.842,62.648,74.288z M77.607,59.49
			c-0.728-0.182-9.664-0.412-13.768,0.35c-3.335,0.617-9.633,0.881-11.945,0.958c0.03,0.263,0.061,0.526,0.084,0.792
			c2.375-0.08,8.602-0.338,12.006-0.971c4.195-0.777,12.891-0.48,13.432-0.359L77.607,59.49z M77.957,55.168
			c-3.588-0.844-14.656-0.337-17.418,0.799c-1.951,0.801-7.344,0.588-9.564,0.46c0.082,0.269,0.157,0.537,0.229,0.81
			c0.953,0.053,2.321,0.109,3.772,0.109c2.232,0,4.627-0.137,5.862-0.646c2.399-0.983,13.269-1.622,16.937-0.759L77.957,55.168z"/>
		<polygon points="17.808,59.068 21.385,72.191 34.507,68.614 33.791,65.986 23.294,68.85 22.579,66.227 33.076,63.366 32.36,60.74 
			21.863,63.604 21.148,60.979 31.645,58.118 30.929,55.492 		"/>
	</g>
</g>
<path fill-rule="evenodd" clip-rule="evenodd" fill="#EA4B8A" d="M18.088,21.562c0.006,0.065,0.012,0.13,0.019,0.209
	c0.047-0.025,0.116-0.04,0.121-0.066c0.14-0.773,0.78-1.136,1.292-1.615c0.645-0.604,1.223-1.277,1.877-1.869
	c0.437-0.394,0.971-0.678,1.433-1.046c0.543-0.433,1.022-0.953,1.59-1.346c0.581-0.401,1.243-0.683,1.853-1.043
	c0.164-0.097,0.243-0.341,0.409-0.432c0.652-0.359,1.327-0.676,1.986-1.023c0.574-0.302,1.116-0.675,1.711-0.923
	c1.085-0.451,2.212-0.804,3.3-1.251c1.71-0.703,3.507-1.067,5.312-1.38c1.251-0.217,2.522-0.4,3.788-0.435
	c1.911-0.051,3.831-0.039,5.737,0.093c2.454,0.169,4.866,0.667,7.197,1.461c1.552,0.529,3.101,1.101,4.58,1.805
	c1.54,0.733,3.065,1.545,4.468,2.511c1.666,1.146,3.227,2.456,4.769,3.769c0.771,0.657,1.406,1.477,2.093,2.231
	c0.596,0.655,1.221,1.289,1.76,1.988c1.5,1.947,2.828,4.008,3.898,6.226c0.177,0.365,0.24,0.783,0.39,1.163
	c0.056,0.143,0.256,0.232,0.306,0.375c0.63,1.824,1.317,3.632,1.839,5.487c0.388,1.38,0.628,2.813,0.799,4.239
	c0.188,1.566,0.324,3.153,0.296,4.728c-0.041,2.312-0.215,4.625-0.733,6.893c-0.074,0.323-0.267,0.619-0.362,0.94
	c-0.076,0.258-0.057,0.545-0.134,0.803c-0.383,1.287-0.768,2.575-1.188,3.852c-0.212,0.646-0.478,1.275-0.756,1.895
	c-1.577,3.508-3.688,6.662-6.273,9.506c-1.97,2.166-4.174,4.062-6.623,5.654c-1.272,0.828-2.6,1.581-3.948,2.279
	c-1.108,0.573-2.271,1.051-3.438,1.497c-0.504,0.193-1.079,0.202-1.621,0.366c0.119,0,0.238,0,0.387,0
	c-0.043,0.052-0.056,0.082-0.075,0.089c-6.684,2.159-13.453,2.418-20.218,0.57c-10.109-2.762-17.803-8.779-22.612-18.074
	c-5.192-10.037-5.584-20.409-1.08-30.879c0.728-1.691,1.522-3.339,2.552-4.859c1.025-1.512,2.121-2.976,3.186-4.461
	C18.009,21.512,18.048,21.537,18.088,21.562z M57.414,16.967c0.308-0.041,0.615-0.081,0.923-0.122
	c-0.356-0.186-0.697-0.251-0.988,0.087c-0.877-0.36-1.743-0.751-2.636-1.071c-0.592-0.212-1.224-0.313-1.833-0.48
	c-2.34-0.64-4.726-0.968-7.148-0.988c-1.183-0.01-2.369,0.023-3.549,0.111c-1.052,0.079-2.1,0.241-3.143,0.406
	c-0.436,0.069-0.855,0.24-1.314,0.374c0.396,0.557,0.685,1.114,1.122,1.582c0.313,0.334,0.539,0.751,0.802,1.133
	c0.732,1.059,1.483,2.106,2.19,3.182c1.085,1.652,2.157,3.313,3.2,4.993c0.77,1.241,1.482,2.517,2.221,3.777
	c0.551,0.939,1.118,1.869,1.649,2.82c0.374,0.668,0.353,0.68,1.025,0.369c0.127-0.059,0.26-0.105,0.39-0.158
	c2.897-1.189,5.689-2.578,8.267-4.372c0.667-0.464,1.369-0.879,1.969-1.44c1.224-1.145,2.453-2.284,3.686-3.419
	c0.222-0.204,0.482-0.364,0.706-0.566c0.088-0.08,0.131-0.215,0.184-0.33c0.042-0.093,0.042-0.216,0.104-0.286
	c0.305-0.343,0.16-0.556-0.158-0.791c-0.713-0.526-1.393-1.099-2.107-1.623C61.242,18.884,59.406,17.789,57.414,16.967z
	 M47.112,75.872c0.124,0,0.25,0.012,0.372-0.003c0.138-0.017,0.271-0.075,0.408-0.085c3.007-0.209,5.876-0.99,8.679-2.065
	c0.479-0.184,0.548-0.467,0.459-0.899c-0.249-1.214-0.466-2.435-0.737-3.644c-0.337-1.501-0.706-2.995-1.077-4.487
	c-0.336-1.351-0.692-2.696-1.044-4.042c-0.112-0.433-0.225-0.866-0.365-1.29c-0.341-1.031-0.691-2.059-1.049-3.084
	c-0.682-1.954-1.365-3.907-2.069-5.854c-0.051-0.141-0.307-0.337-0.412-0.308c-0.62,0.172-1.241,0.364-1.83,0.623
	c-1.452,0.638-2.904,1.279-4.325,1.983c-2.93,1.453-5.711,3.151-8.243,5.236c-0.904,0.744-1.868,1.433-2.685,2.264
	c-0.954,0.972-1.944,1.911-2.815,2.97c-1.512,1.837-2.989,3.689-4.1,5.808c-0.153,0.292-0.156,0.46,0.132,0.653
	c0.836,0.559,1.63,1.187,2.491,1.701c1.171,0.701,2.353,1.407,3.598,1.954c1.318,0.579,2.703,1.021,4.083,1.44
	c2.15,0.654,4.359,1.035,6.606,1.12C44.496,75.913,45.805,75.873,47.112,75.872z M22.218,65.758
	c0.936-1.325,1.792-2.612,2.728-3.839c0.741-0.969,1.571-1.87,2.378-2.787c0.792-0.9,1.574-1.812,2.418-2.662
	c0.905-0.911,1.848-1.791,2.829-2.619c1.039-0.878,2.129-1.695,3.219-2.511c1.877-1.403,3.917-2.546,5.998-3.609
	c2.027-1.035,4.144-1.861,6.334-2.487c0.29-0.083,0.405-0.204,0.245-0.494c-0.09-0.163-0.182-0.329-0.246-0.503
	c-0.139-0.369-0.261-0.745-0.386-1.109c-0.059-0.062-0.162-0.132-0.212-0.23c-0.439-0.877-0.886-1.752-1.294-2.645
	c-0.183-0.399-0.374-0.487-0.821-0.37c-2.421,0.631-4.846,1.254-7.287,1.8c-1.724,0.385-3.473,0.658-5.215,0.955
	c-1.631,0.277-3.25,0.681-4.929,0.525c-0.129-0.012-0.268,0.052-0.4,0.09c-0.263,0.075-0.519,0.19-0.786,0.228
	c-0.524,0.073-1.053,0.11-1.581,0.151c-1.859,0.142-3.717,0.313-5.578,0.408c-1.616,0.082-3.237,0.085-4.855,0.096
	c-0.396,0.002-0.507,0.135-0.493,0.514c0.03,0.841-0.01,1.686,0.038,2.526c0.047,0.822,0.097,1.656,0.278,2.456
	c0.177,0.78,0.196,1.573,0.399,2.362c0.672,2.609,1.551,5.124,2.803,7.509c1.128,2.15,2.539,4.104,4.104,5.953
	C22.003,65.578,22.125,65.671,22.218,65.758z M30.668,17.833c-0.505,0.324-0.994,0.637-1.481,0.951
	c-0.888,0.57-1.833,1.071-2.649,1.729c-0.987,0.795-1.995,1.574-2.883,2.493c-0.707,0.731-1.486,1.394-2.222,2.098
	c-0.116,0.111-0.184,0.276-0.26,0.424c-0.069,0.134-0.096,0.295-0.182,0.414c-0.402,0.556-0.847,1.084-1.224,1.656
	c-0.591,0.894-1.137,1.817-1.709,2.724c-0.182,0.288-0.425,0.543-0.568,0.847c-0.22,0.469-0.35,0.979-0.564,1.45
	c-0.847,1.862-1.478,3.793-1.901,5.794c-0.113,0.536-0.115,0.558,0.44,0.543c1.76-0.045,3.519-0.104,5.278-0.162
	c0.745-0.024,1.492-0.022,2.233-0.091c0.959-0.089,1.911-0.25,2.868-0.359c1.451-0.164,2.908-0.286,4.356-0.469
	c1.017-0.128,2.027-0.314,3.035-0.5c0.969-0.179,1.948-0.258,2.915-0.504c2.288-0.582,4.605-1.05,6.912-1.559
	c0.354-0.078,0.438-0.261,0.255-0.565c-1.32-2.2-2.631-4.405-3.969-6.594c-0.859-1.405-1.738-2.8-2.646-4.173
	c-0.949-1.435-1.95-2.834-2.916-4.258c-0.125-0.184-0.171-0.42-0.25-0.625c-0.082-0.048-0.235-0.091-0.312-0.191
	c-0.265-0.346-0.498-0.716-0.752-1.07c-0.413-0.575-0.415-0.569-1.05-0.307c-0.099,0.041-0.223,0.02-0.331,0.044
	c-0.22,0.049-0.437,0.111-0.655,0.167c0.003,0.026,0.007,0.051,0.011,0.077C30.515,17.822,30.586,17.827,30.668,17.833z
	 M68.834,25.633c-0.122,0.112-0.174,0.147-0.21,0.195c-1.195,1.573-2.642,2.906-4.111,4.206c-1.812,1.603-3.805,2.968-5.871,4.224
	c-2.132,1.297-4.368,2.389-6.666,3.358c-0.247,0.104-0.435,0.178-0.27,0.538c0.835,1.826,1.635,3.668,2.468,5.495
	c0.062,0.136,0.294,0.278,0.442,0.274c0.467-0.013,0.93-0.112,1.396-0.147c1.004-0.075,2.009-0.186,3.013-0.184
	c2.021,0.004,4.042,0.056,6.062,0.124c0.952,0.032,1.902,0.153,2.854,0.216c0.494,0.033,0.997-0.018,1.485,0.049
	c1.887,0.258,3.769,0.549,5.652,0.827c0.22,0.033,0.439,0.065,0.782,0.115c-0.106-1.373-0.198-2.643-0.305-3.912
	c-0.062-0.724-0.382-1.425-0.192-2.173c0.014-0.056-0.012-0.122-0.019-0.183c-0.346,0.124-0.249-0.198-0.284-0.32
	c-0.215-0.742-0.384-1.498-0.602-2.239c-0.664-2.256-1.576-4.407-2.803-6.417c-0.551-0.903-1.134-1.787-1.731-2.66
	C69.604,26.549,69.221,26.121,68.834,25.633z M58.118,54.485c0.337,1.177,0.656,2.258,0.955,3.346
	c0.411,1.497,0.823,2.995,1.204,4.5c0.419,1.654,0.788,3.321,1.208,4.976c0.252,0.995,0.255,2.033,0.56,3.019
	c0.081,0.264,0.116,0.459,0.45,0.215c2.166-1.581,4.206-3.299,5.93-5.37c1.369-1.646,2.64-3.355,3.632-5.262
	c0.783-1.503,1.547-3.014,2.066-4.632c0.274-0.852,0.541-1.707,0.772-2.57c0.203-0.763,0.365-1.537,0.521-2.311
	c0.087-0.434-0.116-0.666-0.495-0.657c-0.137,0.004-0.276-0.023-0.41-0.055c-1.059-0.251-2.105-0.567-3.176-0.746
	c-1.499-0.251-3.01-0.464-4.524-0.575c-1.874-0.138-3.759-0.226-5.637-0.2c-1.434,0.02-2.864,0.241-4.295,0.386
	c-0.666,0.066-0.81,0.287-0.582,0.896c0.278,0.748,0.643,1.469,0.862,2.233c0.27,0.938,0.856,1.801,0.729,2.844
	c-0.007,0.059,0.057,0.127,0.098,0.211C58.031,54.647,58.058,54.599,58.118,54.485z"/>
</svg>
