<?xml version="1.0" encoding="utf-8"?>
<!-- Generator: Adobe Illustrator 16.0.1, SVG Export Plug-In . SVG Version: 6.00 Build 0)  -->
<!DOCTYPE svg PUBLIC "-//W3C//DTD SVG 1.1//EN" "http://www.w3.org/Graphics/SVG/1.1/DTD/svg11.dtd">
<svg version="1.1" id="Layer_1" xmlns="http://www.w3.org/2000/svg" xmlns:xlink="http://www.w3.org/1999/xlink" x="0px" y="0px"
	 width="299.761px" height="300px" viewBox="0 0 299.761 300" enable-background="new 0 0 299.761 300" xml:space="preserve">
<g id="Full" display="none">
	<path id="Border" display="inline" fill="#48CCBA" d="M0,0v1880h1880V0H0z M1840,1840H40V40h1800V1840z"/>
	<g id="ELLIOT" display="inline">
		<polygon id="E" fill="#48CCBA" points="440,280 440,240 240,240 240,440 440,440 440,400 280,400 280,360 440,360 440,320 
			280,320 280,280 		"/>
		<polygon id="L_1_" fill="#48CCBA" points="680,400 680,240 640,240 640,440 840,440 840,400 		"/>
		<polygon id="L" fill="#48CCBA" points="1080,400 1080,240 1040,240 1040,440 1240,440 1240,400 		"/>
		<polygon id="I" fill="#48CCBA" points="1640,280 1640,240 1440,240 1440,280 1520,280 1520,400 1440,400 1440,440 1640,440 
			1640,400 1560,400 1560,280 		"/>
		<path id="O" fill="#48CCBA" d="M340,640c-55.229,0-100,44.771-100,100s44.771,100,100,100c55.229,0,100-44.771,100-100
			S395.229,640,340,640z M340,800c-33.137,0-60-26.863-60-60s26.863-60,60-60s60,26.863,60,60S373.137,800,340,800z"/>
		<polygon id="T" fill="#48CCBA" points="840,640 640,640 640,680 720,680 720,840 760,840 760,680 840,680 		"/>
	</g>
	<g id="GREENWOOD" display="inline">
		<path id="G" fill="#48CCBA" d="M1540,680h100v-40h-100c-55.229,0-100,44.771-100,100s44.771,100,100,100h100V720h-80v40h40v40h-60
			c-33.137,0-60-26.863-60-60S1506.863,680,1540,680z"/>
		<path id="R" fill="#48CCBA" d="M440.283,1240l-47.17-47.17c15.193-6.926,27.844-18.465,36.156-32.83
			c6.812-11.77,10.729-25.424,10.729-40s-3.918-28.23-10.729-40c-13.834-23.905-39.664-40-69.271-40H240v200h40v-40h63.715l40,40
			H440.283z M280,1160v-80h80c22.092,0,40,17.908,40,40s-17.908,40-40,40H280z"/>
		<polygon id="E_1_" fill="#48CCBA" points="840,1080 840,1040 640,1040 640,1240 840,1240 840,1200 680,1200 680,1160 840,1160 
			840,1120 680,1120 680,1080 		"/>
		<polygon id="E_2_" fill="#48CCBA" points="1240,1080 1240,1040 1040,1040 1040,1240 1240,1240 1240,1200 1080,1200 1080,1160 
			1240,1160 1240,1120 1080,1120 1080,1080 		"/>
		<polygon id="N" fill="#48CCBA" points="1600,1040 1600,1178.529 1480,1040 1440,1040 1440,1240 1480,1240 1480,1101.456 
			1600,1240 1640,1240 1640,1040 		"/>
		<polygon id="W" display="none" fill="#48CCBA" points="399.991,1440 378.228,1548.789 361.049,1480 319.745,1480 
			302.564,1548.789 280.795,1440 240,1440 280,1640 321.012,1640 340.396,1562.462 359.78,1640 400.79,1640 440.789,1440 		"/>
		<polygon id="W_1_" fill="#48CCBA" points="400,1440 400,1560.205 360,1491 320,1491 280,1560.131 280,1440 240,1440 240,1640 
			279.989,1640 280,1640 280,1639.98 340,1536.058 400,1639.98 400,1640 400.011,1640 440,1640 440,1440 		"/>
		<path id="O_1_" fill="#48CCBA" d="M740,1440c-55.229,0-100,44.771-100,100s44.771,100,100,100s100-44.771,100-100
			S795.229,1440,740,1440z M740,1600c-33.137,0-60-26.863-60-60c0-33.138,26.863-60,60-60s60,26.862,60,60
			C800,1573.137,773.137,1600,740,1600z"/>
		<path id="O_2_" fill="#48CCBA" d="M1140,1440c-55.229,0-100,44.771-100,100s44.771,100,100,100s100-44.771,100-100
			S1195.229,1440,1140,1440z M1140,1600c-33.137,0-60-26.863-60-60c0-33.138,26.863-60,60-60s60,26.862,60,60
			C1200,1573.137,1173.137,1600,1140,1600z"/>
		<path id="D" fill="#48CCBA" d="M1540,1440c-0.013,0-0.025,0-0.039,0H1480h-40v40v120v40h40h60c55.229,0,100-44.771,100-100
			S1595.229,1440,1540,1440z M1540,1600h-60v-120h59.98h0.02l0,0c33.137,0,60,26.862,60,60C1600,1573.137,1573.137,1600,1540,1600z"
			/>
	</g>
</g>
<g id="Final">
	<path id="Colour" fill="#FFFFFF" d="M-0.239,0v300h300V0H-0.239z M293.378,293.617H6.144V6.383h287.234V293.617z M70.133,70.213
		H38.059V38.298h31.915v6.383H44.441v6.383h25.532v6.383H44.601v6.383h25.532V70.213z M133.803,70.213h-31.915V38.298h6.383V63.83
		h25.532V70.213z M197.633,70.213h-31.915V38.298h6.383V63.83h25.532V70.213z M261.463,70.213h-31.915V63.83h12.766V44.681h-12.766
		v-6.383h31.915v6.383h-12.766V63.83h12.766V70.213z M54.016,134.042c8.813,0,15.958-7.144,15.958-15.958
		c0-8.813-7.145-15.957-15.958-15.957s-15.958,7.144-15.958,15.957C38.059,126.898,45.203,134.042,54.016,134.042z M54.016,108.511
		c5.288,0,9.574,4.287,9.574,9.574c0,5.288-4.287,9.575-9.574,9.575s-9.575-4.287-9.575-9.575
		C44.441,112.797,48.729,108.511,54.016,108.511z M114.654,108.511h-12.766v-6.383h31.915v6.383h-12.766v25.532h-6.383V108.511z
		 M229.548,118.085c0-8.813,7.145-15.957,15.958-15.957h15.958v6.383h-15.958c-5.288,0-9.574,4.287-9.574,9.574
		c0,5.288,4.287,9.575,9.574,9.575h9.575v-6.383h-6.383v-6.383h12.766v19.149h-15.958
		C236.692,134.042,229.548,126.898,229.548,118.085z M44.441,191.489h10.167l6.383,6.383h9.027l-7.527-7.526
		c2.424-1.105,4.443-2.947,5.77-5.239c1.087-1.878,1.712-4.057,1.712-6.383s-0.625-4.505-1.712-6.383
		c-2.208-3.815-6.33-6.384-11.054-6.384H38.059v31.915h6.383V191.489z M44.441,172.341h12.766c3.525,0,6.383,2.857,6.383,6.383
		s-2.857,6.383-6.383,6.383H44.441V172.341z M133.803,197.872h-31.915v-31.915h31.915v6.384h-25.532v6.383h25.532v6.383h-25.532
		v6.383h25.532V197.872z M197.633,197.872h-31.915v-31.915h31.915v6.384h-25.532v6.383h25.532v6.383h-25.532v6.383h25.532V197.872z
		 M235.931,197.872h-6.383v-31.915h6.383l19.149,22.106v-22.106h6.383v31.915h-6.383l-19.149-22.107V197.872z M44.44,261.702h-6.381
		v-31.915h6.383v19.17l6.383-11.031h6.383l6.383,11.043v-19.182h6.383v31.915h-6.381H63.59v-0.003l-9.574-16.584l-9.575,16.584
		v0.003H44.44z M117.846,261.702c8.813,0,15.958-7.145,15.958-15.958c0-8.812-7.145-15.957-15.958-15.957
		s-15.958,7.145-15.958,15.957C101.888,254.558,109.033,261.702,117.846,261.702z M117.846,236.17c5.288,0,9.575,4.287,9.575,9.574
		c0,5.288-4.287,9.575-9.575,9.575c-5.288,0-9.574-4.287-9.574-9.575C108.271,240.457,112.558,236.17,117.846,236.17z
		 M181.676,261.702c8.813,0,15.958-7.145,15.958-15.958c0-8.812-7.145-15.957-15.958-15.957s-15.958,7.145-15.958,15.957
		C165.718,254.558,172.863,261.702,181.676,261.702z M181.676,236.17c5.288,0,9.574,4.287,9.574,9.574
		c0,5.288-4.287,9.575-9.574,9.575c-5.288,0-9.575-4.287-9.575-9.575C172.101,240.457,176.388,236.17,181.676,236.17z
		 M245.505,261.702c8.813,0,15.958-7.145,15.958-15.958c0-8.812-7.145-15.957-15.958-15.957c-0.002,0-0.004,0-0.006,0h-9.568h-6.383
		v6.383v19.149v6.383h6.383H245.505z M235.931,236.17c0,0,9.734,0.001,9.813,0.004c5.177,0.127,9.335,4.363,9.335,9.57
		c0,5.288-4.287,9.575-9.575,9.575h-9.574V236.17z"/>
	<path id="Grey" display="none" fill="#333333" d="M0.239,0v300h300V0H0.239z M293.856,293.617H6.623V6.383h287.234V293.617z
		 M70.452,70.213H38.537V38.298h31.915v6.383H44.92v6.383h25.532v6.383H44.92v6.383h25.532V70.213z M134.282,70.213h-31.915V38.298
		h6.383V63.83h25.532V70.213z M198.112,70.213h-31.915V38.298h6.383V63.83h25.532V70.213z M261.941,70.213h-31.915V63.83h12.766
		V44.681h-12.766v-6.383h31.915v6.383h-12.766V63.83h12.766V70.213z M54.495,134.042c8.813,0,15.958-7.144,15.958-15.958
		c0-8.813-7.145-15.957-15.958-15.957s-15.958,7.144-15.958,15.957C38.537,126.898,45.682,134.042,54.495,134.042z M54.495,108.511
		c5.288,0,9.575,4.287,9.575,9.574c0,5.288-4.287,9.575-9.575,9.575c-5.288,0-9.574-4.287-9.574-9.575
		C44.92,112.797,49.207,108.511,54.495,108.511z M115.133,108.511h-12.766v-6.383h31.915v6.383h-12.766v25.532h-6.383V108.511z
		 M230.027,118.085c0-8.813,7.144-15.957,15.958-15.957h15.957v6.383h-15.957c-5.288,0-9.575,4.287-9.575,9.574
		c0,5.288,4.287,9.575,9.575,9.575h9.574v-6.383h-6.383v-6.383h12.766v19.149h-15.957
		C237.171,134.042,230.027,126.898,230.027,118.085z M44.92,191.489h10.167l6.383,6.383h9.027l-7.527-7.526
		c2.424-1.105,4.443-2.947,5.77-5.239c1.087-1.878,1.712-4.057,1.712-6.383s-0.625-4.505-1.712-6.383
		c-2.208-3.815-6.329-6.384-11.054-6.384H38.537v31.915h6.383V191.489z M44.92,172.341h12.766c3.525,0,6.383,2.857,6.383,6.383
		s-2.858,6.383-6.383,6.383H44.92V172.341z M134.282,197.872h-31.915v-31.915h31.915v6.384H108.75v6.383h25.532v6.383H108.75v6.383
		h25.532V197.872z M198.112,197.872h-31.915v-31.915h31.915v6.384H172.58v6.383h25.532v6.383H172.58v6.383h25.532V197.872z
		 M236.41,197.872h-6.383v-31.915h6.383l19.149,22.106v-22.106h6.383v31.915h-6.383l-19.149-22.107V197.872z M44.918,261.702h-6.381
		v-31.915h6.383v19.17l6.383-11.031h6.383l6.383,11.043v-19.182h6.383v31.915h-6.381h-0.001v-0.003l-9.575-16.584l-9.574,16.584
		v0.003H44.918z M118.325,261.702c8.813,0,15.958-7.145,15.958-15.958c0-8.812-7.145-15.957-15.958-15.957
		s-15.958,7.145-15.958,15.957C102.367,254.558,109.512,261.702,118.325,261.702z M118.325,236.17c5.288,0,9.574,4.287,9.574,9.574
		c0,5.288-4.287,9.575-9.574,9.575c-5.288,0-9.575-4.287-9.575-9.575C108.75,240.457,113.037,236.17,118.325,236.17z
		 M182.154,261.702c8.813,0,15.958-7.145,15.958-15.958c0-8.812-7.145-15.957-15.958-15.957s-15.958,7.145-15.958,15.957
		C166.197,254.558,173.341,261.702,182.154,261.702z M182.154,236.17c5.288,0,9.575,4.287,9.575,9.574
		c0,5.288-4.287,9.575-9.575,9.575s-9.574-4.287-9.574-9.575C172.58,240.457,176.867,236.17,182.154,236.17z M245.984,261.702
		c8.813,0,15.957-7.145,15.957-15.958c0-8.812-7.144-15.957-15.957-15.957c-0.002,0-0.004,0-0.006,0h-9.568h-6.383v6.383v19.149
		v6.383h6.383H245.984z M236.41,236.17h9.571h0.003c5.288,0,9.574,4.287,9.574,9.574c0,5.288-4.287,9.575-9.574,9.575h-9.575V236.17
		z"/>
</g>
</svg>
