<?xml version="1.0" encoding="utf-8"?>
<!-- Generator: Adobe Illustrator 16.0.3, SVG Export Plug-In . SVG Version: 6.00 Build 0)  -->
<!DOCTYPE svg PUBLIC "-//W3C//DTD SVG 1.1//EN" "http://www.w3.org/Graphics/SVG/1.1/DTD/svg11.dtd">
<svg version="1.1" id="Layer_1" xmlns="http://www.w3.org/2000/svg" xmlns:xlink="http://www.w3.org/1999/xlink" x="0px" y="0px"
	 width="90px" height="90px" viewBox="0 0 90 90" enable-background="new 0 0 90 90" xml:space="preserve">
<g id="Icon">
	<rect x="-6" y="-6" display="none" fill="#48CCBA" width="102" height="102"/>
	<path fill="#9ECD52" d="M6.325,15.392c-0.252-0.527-1.275-2.231,0-2.833c1.275-0.602,1.912,1.417,3.559,0.726
		c1.647-0.69,0.212-2.762,1.718-2.904s1.789,2.32,2.692,2.16c1.629-0.177,0.726-2.532,2.461-2.815
		c1.735-0.283,2.072,2.072,3.293,1.93c1.222-0.142,1.24-2.958,2.302-2.993c1.062-0.036,1.771,2.125,2.939,1.983
		c1.169-0.142,1.222-2.904,2.302-2.94c1.08-0.035,1.718,2.161,2.815,2.072c1.098-0.089,1.081-2.745,2.072-2.78
		c0.992-0.036,2.037,2.089,2.851,2.089c0.815,0,1.151-3.188,2.426-3.223c1.275-0.036,1.913,2.355,2.869,2.267
		c0.957-0.089,1.098-2.904,2.515-2.922s1.594,2.143,2.993,2.001c1.397-0.142,0.654-2.585,2.071-2.887
		c1.417-0.301,1.559,2.072,2.957,1.931c1.398-0.142,0.709-2.674,2.125-2.887c1.417-0.212,1.789,2.143,3.082,1.948
		c1.292-0.195,0.867-2.78,2.213-3.01s1.665,2.337,2.904,2.231c1.238-0.106,1.222-2.922,2.55-3.011
		c1.327-0.088,1.718,2.178,2.922,2.001c1.204-0.177,1.045-2.922,1.877-2.939c0.833-0.018,2.853,0.372,3.011,0.992
		c0.159,0.62-0.814,2.136-0.779,2.585C71.12,5.917,74.061,6.095,74.29,7.6c0.212,1.718-1.913,1.523-1.858,2.691
		c0.053,1.169,2.637,2.054,2.655,3.082c0,0.992-1.647,2.249-1.647,2.993c0,0.744,2.656,2.532,2.729,3.312
		c0.07,0.779-1.523,1.895-1.506,3.134s2.515,2.125,2.586,2.975c0.124,1.239-1.771,2.461-1.771,2.993
		c-0.018,0.566,2.887,2.143,2.853,3.188c-0.035,1.044-1.611,2.089-1.629,2.957c-0.019,0.868,2.479,1.753,2.55,3.063
		c0.07,1.311-1.238,6.251-1.134,8.766c0.266,5.137,4.569,7.738,4.692,9.883c0.125,2.143-1.718,2.407-1.718,3.15
		c0,0.744,2.585,1.982,2.603,3.152c0.019,1.168-1.946,2.604-1.93,3.275c0.018,0.672,2.799,1.947,3.01,2.656
		c0.213,0.708,0.303,2.213,0.195,2.779c0,0-0.39,1.01-0.955,0.922c-0.568-0.09-1.365-0.744-2.037-0.762
		c-0.674-0.019-1.506,3.275-2.763,3.293c-1.258,0.019-1.487-2.426-2.479-2.391c-1.451,0.053-0.813,2.957-2.779,3.205
		c-1.967,0.248-1.559-2.303-3.062-2.249c-1.506,0.054-0.674,2.851-2.338,3.116s-1.523-2.319-2.834-2.213
		c-1.311,0.105-1.15,2.957-2.302,3.099c-0.976,0.124-1.7-2.497-2.853-2.214c-1.149,0.283-0.762,2.779-2.194,2.939
		c-1.435,0.16-1.7-2.496-2.815-2.248c-1.115,0.246-0.371,3.045-2.338,3.363c-1.966,0.318-1.293-2.496-2.832-2.248
		c-1.541,0.248-0.691,2.779-2.552,2.887c-1.858,0.104-1.718-2.18-3.01-2.021c-1.292,0.16-0.39,2.993-2.16,2.993
		c-1.771,0-1.824-2.497-2.993-2.09c-1.169,0.406-0.177,2.248-1.983,2.939c-1.806,0.69-1.611-2.23-3.188-1.947
		s-0.195,2.797-2.143,3.045c-1.948,0.248-1.736-2.531-2.975-2.354c-1.24,0.177-0.833,3.046-2.603,3.116
		c-1.771,0.07-1.435-2.213-2.851-2.105c-1.417,0.104-0.762,2.727-1.753,2.867c-0.991,0.141-3.169,0.018-3.205-1.238
		c-0.036-1.258,1.027-1.859,0.372-2.408c-0.655-0.549-2.231,0.266-2.426-0.479c-0.566-2.232,1.789-2.408,1.576-3.507
		c-0.212-1.099-2.55-2.056-2.55-3.294s1.47-1.842,1.452-3.1s-2.585-1.664-2.762-3.223c-0.177-1.559,1.771-3.541,1.576-6.535
		c-0.035-8.162-4.533-9.402-4.71-11.899c-0.124-1.683,1.824-1.63,1.753-2.992c-0.088-1.877-2.975-1.594-3.117-2.851
		c-0.142-1.257,2.001-2.001,1.842-3.276c-0.213-1.913-2.267-1.062-2.833-2.922s1.948-2.409,1.842-3.684s-2.904-0.921-2.94-2.231
		c-0.035-1.311,1.771-2.975,1.665-3.737c-0.142-1.204-2.568-1.965-2.621-3.117c-0.053-1.151,2.178-2.231,2.125-3.24
		c-0.053-1.01-2.993-2.125-3.046-2.833C5.971,17.163,6.577,15.918,6.325,15.392z"/>
	<polygon fill="#FFFFFF" points="13.833,17.092 66.25,7.6 76.875,67.24 24.458,76.592 	"/>
	<g id="Stamp" opacity="0.3">
		
			<linearGradient id="SVGID_1_" gradientUnits="userSpaceOnUse" x1="-23.5776" y1="17.5176" x2="55.1836" y2="17.5176" gradientTransform="matrix(1 0 0 -1 24.9448 81.3594)">
			<stop  offset="0.8829" style="stop-color:#000000"/>
			<stop  offset="1" style="stop-color:#000000;stop-opacity:0"/>
		</linearGradient>
		<path fill="url(#SVGID_1_)" d="M26.725,89.2c-13.982,0-25.358-11.376-25.358-25.358s11.376-25.358,25.358-25.358
			s25.358,11.375,25.358,25.358S40.708,89.2,26.725,89.2z M26.725,39.617C13.367,39.617,2.5,50.484,2.5,63.842
			c0,13.358,10.867,24.225,24.225,24.225c13.357,0,24.225-10.866,24.225-24.225C50.95,50.484,40.083,39.617,26.725,39.617z
			 M26.725,86.934c-12.733,0-23.092-10.358-23.092-23.092c0-12.732,10.359-23.092,23.092-23.092s23.091,10.359,23.091,23.092
			C49.816,76.575,39.458,86.934,26.725,86.934z M26.725,41.883c-12.108,0-21.958,9.85-21.958,21.958S14.617,85.8,26.725,85.8
			s21.958-9.85,21.958-21.958C48.684,51.734,38.833,41.883,26.725,41.883z M26.725,79.85c-8.827,0-16.008-7.182-16.008-16.008
			s7.181-16.009,16.008-16.009s16.008,7.183,16.008,16.009S35.552,79.85,26.725,79.85z M26.725,48.967
			c-8.202,0-14.875,6.674-14.875,14.875c0,8.202,6.673,14.875,14.875,14.875S41.6,72.044,41.6,63.842
			C41.6,55.641,34.927,48.967,26.725,48.967z M26.725,77.675c-7.628,0-13.834-6.204-13.834-13.833
			c0-7.628,6.206-13.834,13.834-13.834s13.834,6.206,13.834,13.834C40.559,71.471,34.353,77.675,26.725,77.675z M26.725,51.143
			c-7.003,0-12.701,5.696-12.701,12.699c0,7.002,5.697,12.7,12.701,12.7c7.003,0,12.701-5.698,12.701-12.7
			C39.426,56.839,33.728,51.143,26.725,51.143z M54.711,48.514c2.066-0.035,4.784-0.41,7.662-0.806
			c2.701-0.37,5.495-0.755,7.645-0.824c4.299-0.134,7.4,0.345,7.434,0.351l0.124-0.783c-0.032-0.006-3.197-0.499-7.583-0.359
			c-2.19,0.071-5.006,0.458-7.727,0.832c-2.854,0.393-5.55,0.762-7.568,0.799c-2.818,0.026-6.998-0.578-9.225-0.938
			c0.279,0.307,0.551,0.618,0.816,0.94c2.253,0.351,5.582,0.793,8.08,0.793C54.484,48.518,54.6,48.516,54.711,48.514z
			 M40.375,42.488c3.916,0.67,17.045,1.025,17.162,1.025c3.263,0,6.079-0.192,7.886-0.455c3.058-0.444,5.696-1.077,13.123,0.145
			l0.129-0.774c-7.55-1.244-10.245-0.836-13.364-0.381c-1.845,0.269-3.926,0.623-7.346,0.582
			c-7.658-0.049-15.552-0.705-19.085-1.037C39.39,41.874,39.887,42.174,40.375,42.488z M55.593,66.076
			c2.539,0,5.845-0.227,8.792-1.146c4.075-1.271,8.533-0.557,10.928-0.172c1.084,0.176,1.578,0.249,1.871,0.178l-0.19-0.771
			c-0.161,0.037-0.871-0.08-1.556-0.188c-2.457-0.396-7.035-1.135-11.289,0.195c-4.629,1.446-10.334,1.109-12.099,0.958
			c-0.013,0.267-0.036,0.529-0.06,0.794C52.7,65.986,53.986,66.076,55.593,66.076z M77.266,69.297l-0.23-0.462l-0.004-0.282
			c-0.09-0.006-0.446-0.06-0.797-0.119c-1.992-0.342-7.285-1.246-12.424,0.125c-4.955,1.32-10.354,1.164-12.395,1.043
			c-0.061,0.262-0.124,0.523-0.191,0.782c0.635,0.041,1.643,0.089,2.904,0.089c2.65,0,6.377-0.211,9.887-1.147
			c4.975-1.324,10.139-0.441,12.086-0.109C76.917,69.354,77.091,69.381,77.266,69.297z M59.857,82.51
			c-5.66,1.293-12.349-0.188-15.053-0.91c-0.216,0.221-0.438,0.435-0.663,0.646c1.753,0.5,6.056,1.576,10.684,1.576
			c1.729,0,3.507-0.15,5.208-0.541c7.566-1.729,17.096-1.213,18.424-0.656l0.305-0.732C77.104,81.197,67.332,80.8,59.857,82.51z
			 M61.941,51.496c-3.371,1.158-10.127,0.369-13.115-0.064c0.162,0.287,0.316,0.577,0.468,0.873c1.907,0.264,4.83,0.592,7.604,0.592
			c1.988,0,3.898-0.168,5.302-0.649c4.536-1.56,14.962-0.794,15.562-0.63l0.209-0.766C77.057,50.602,66.564,49.906,61.941,51.496z
			 M79.654,77.725c-4.403-0.76-8.562-1.479-17.934,0.105c-6.837,1.154-11.598,0.314-13.707-0.234
			c-0.154,0.235-0.312,0.473-0.474,0.702c1.321,0.375,3.851,0.913,7.455,0.913c1.973,0,4.267-0.161,6.856-0.6
			c9.236-1.561,13.146-0.885,17.668-0.106l0.475,0.082l0.135-0.78L79.654,77.725z M63.628,86.486c-2.976,0.414-5.784,0.805-7.95,0.9
			c-2.246,0.096-5.043-0.383-8.005-0.891c-1.379-0.236-2.806-0.482-4.179-0.665c-1.255-0.167-2.493-0.271-3.591-0.333
			c-0.421,0.257-0.852,0.499-1.289,0.732c1.33,0.049,3.037,0.154,4.775,0.387c1.358,0.182,2.778,0.425,4.15,0.66
			c2.729,0.47,5.32,0.916,7.52,0.916c0.224,0,0.441-0.006,0.655-0.016c2.202-0.098,5.03-0.49,8.022-0.906
			c5.439-0.758,11.603-1.613,13.967-0.545l0.326-0.723C75.458,84.839,69.443,85.676,63.628,86.486z M62.648,74.288
			c7.559-1.597,13.129-0.923,13.186-0.915l0.1-0.788c-0.058-0.007-5.752-0.696-13.449,0.927c-5.516,1.164-10.256,0.635-12.428,0.262
			c-0.109,0.254-0.226,0.504-0.342,0.752c1.182,0.219,3.21,0.502,5.794,0.502C57.59,75.025,60.025,74.842,62.648,74.288z
			 M77.607,59.49c-0.728-0.182-9.664-0.412-13.768,0.35c-3.335,0.617-9.633,0.881-11.945,0.958c0.03,0.263,0.061,0.526,0.084,0.792
			c2.375-0.08,8.602-0.338,12.006-0.971c4.195-0.777,12.891-0.48,13.432-0.359L77.607,59.49z M77.957,55.168
			c-3.588-0.844-14.656-0.337-17.418,0.799c-1.951,0.801-7.344,0.588-9.564,0.461c0.082,0.268,0.157,0.536,0.229,0.809
			c0.953,0.053,2.321,0.109,3.772,0.109c2.232,0,4.627-0.137,5.862-0.646c2.399-0.983,13.269-1.622,16.937-0.759L77.957,55.168z"/>
		<polygon points="17.808,59.068 21.385,72.191 34.507,68.613 33.791,65.986 23.294,68.85 22.579,66.227 33.076,63.366 32.36,60.74 
			21.863,63.604 21.148,60.979 31.645,58.118 30.929,55.492 		"/>
	</g>
</g>
</svg>
