<?xml version="1.0" encoding="utf-8"?>
<!-- Generator: Adobe Illustrator 17.0.0, SVG Export Plug-In . SVG Version: 6.00 Build 0)  -->
<!DOCTYPE svg PUBLIC "-//W3C//DTD SVG 1.1//EN" "http://www.w3.org/Graphics/SVG/1.1/DTD/svg11.dtd">
<svg version="1.1" id="Layer_1" xmlns="http://www.w3.org/2000/svg" xmlns:xlink="http://www.w3.org/1999/xlink" x="0px" y="0px"
	 width="64px" height="64px" viewBox="0 0 64 64" enable-background="new 0 0 64 64" xml:space="preserve">
<path id="Store" fill="#C4C4C4" d="M7.9,15.009v39.095H56.1V15.009H43.874L33.269,7.294c0.001-0.022,0.006-0.047,0.006-0.069
	c0-0.683-0.553-1.239-1.236-1.239c-0.682,0-1.236,0.552-1.236,1.234c0,0.023,0.005,0.052,0.007,0.075l-10.605,7.714H7.9z
	 M50.744,20.365v27.848H13.256V20.365H50.744z M31.088,8.009c0.227,0.277,0.567,0.452,0.952,0.452c0.385,0,0.725-0.172,0.952-0.449
	l9.621,6.998H21.467L31.088,8.009z"/>
</svg>
