<?xml version="1.0" encoding="utf-8"?>
<!-- Generator: Adobe Illustrator 17.0.0, SVG Export Plug-In . SVG Version: 6.00 Build 0)  -->
<!DOCTYPE svg PUBLIC "-//W3C//DTD SVG 1.1//EN" "http://www.w3.org/Graphics/SVG/1.1/DTD/svg11.dtd">
<svg version="1.1" id="Layer_1" xmlns="http://www.w3.org/2000/svg" xmlns:xlink="http://www.w3.org/1999/xlink" x="0px" y="0px"
	 width="64px" height="64px" viewBox="0 0 64 64" enable-background="new 0 0 64 64" xml:space="preserve">
<g>
	<path fill="#C4C4C4" d="M22.382,32.271c1.605,0,1.973,0.09,2.202,0.826l1.239,3.946c0.55,1.696,0.872,2.798,0.872,3.12
		c0,0.274-0.184,0.595-1.239,0.779l-1.468,0.231c-0.505,0.366-0.413,1.33,0.092,1.604c2.111-0.092,3.9-0.137,6.194-0.137
		c2.386,0,4.863,0.045,7.065,0.137c0.413-0.274,0.321-1.375,0.046-1.604l-1.743-0.276c-1.698-0.276-2.111-1.33-3.074-4.084
		l-6.239-17.984c-1.147-3.257-1.698-4.955-2.065-6.285c-0.184-0.689-0.459-0.917-1.055-0.917c-0.092,0-1.789,2.248-3.992,2.752
		c0.138,1.33-0.643,2.936-1.697,5.826l-4.175,11.195c-1.238,3.304-2.111,5.505-2.89,7.34c-0.78,1.79-1.698,2.158-2.798,2.295
		l-1.239,0.139c-0.321,0.366-0.367,1.33,0.138,1.604c2.111,0,3.166-0.137,4.725-0.137c1.927,0.045,3.579,0.045,5.185,0.137
		c0.459-0.229,0.367-1.283,0.092-1.604l-1.377-0.231c-1.284-0.229-1.881-0.505-1.881-0.779c0-0.368,0.046-0.735,0.322-1.653
		l1.789-5.321c0.275-0.872,0.413-0.917,1.514-0.917H22.382z M17.84,29.839c-1.147,0-1.376-0.139-0.963-1.377l1.147-3.441
		c0.688-2.111,1.605-4.587,1.972-5.644c0.414,0.964,1.239,3.441,1.882,5.415l1.192,3.715c0.367,1.193,0.138,1.332-0.917,1.332H17.84
		z M53.756,30.297c0.229-4.726-2.019-6.653-5.873-6.653c-3.258,0-6.148,1.561-7.708,2.799c-1.1,0.872-2.202,2.34-2.202,3.533
		c0,0.642,0.275,1.146,1.055,1.146c0.826,0,2.615-0.55,3.303-1.054c0.413-0.321,0.689-0.734,0.78-1.469
		c0.322-1.972,1.285-2.614,2.386-2.614c1.973,0,2.661,2.201,2.661,3.944c0,0.552-0.046,1.056-0.092,1.561
		c-0.046,0.368-0.275,0.689-1.101,0.917c-1.284,0.368-2.569,0.734-4.312,1.285c-3.349,1.009-4.771,2.432-4.771,4.771
		c0,3.21,2.478,4.816,5.139,4.816c1.697,0,3.073-0.871,3.9-1.467c0.459-0.321,0.734-0.505,0.963-0.505
		c0.229,0,0.413,0.092,0.734,0.366c1.239,1.056,2.248,1.606,3.854,1.606c2.615,0,4.771-1.743,5.322-2.477
		c0.138-0.413-0.137-0.964-0.551-1.056c-0.734,0.415-1.192,0.552-1.743,0.552c-0.917,0-2.248-0.826-2.065-3.946L53.756,30.297z
		 M47.838,38.052c-0.046,1.422-0.322,2.248-1.744,2.248c-1.284,0-2.34-1.285-2.34-2.752c0-2.158,1.789-2.936,3.854-3.212
		c0.321-0.045,0.367,0.092,0.321,0.826L47.838,38.052z M49.759,56.118H12.463v-1.776h37.296V56.118z"/>
</g>
</svg>
