<?xml version="1.0" encoding="utf-8"?>
<!-- Generator: Adobe Illustrator 17.0.0, SVG Export Plug-In . SVG Version: 6.00 Build 0)  -->
<!DOCTYPE svg PUBLIC "-//W3C//DTD SVG 1.1//EN" "http://www.w3.org/Graphics/SVG/1.1/DTD/svg11.dtd">
<svg version="1.1" id="Layer_1" xmlns="http://www.w3.org/2000/svg" xmlns:xlink="http://www.w3.org/1999/xlink" x="0px" y="0px"
	 width="64px" height="64px" viewBox="0 0 64 64" enable-background="new 0 0 64 64" xml:space="preserve">
<path id="Work" fill="#C4C4C4" d="M27.781,36.002L15.777,23.896l-6.686,6.686L2,23.44l6.686-6.737l-1.671-1.57l4.964-4.964
	l1.57,1.57l6.635-6.686l7.091,7.192l-6.585,6.686l11.954,12.106l12.005-12.055l-6.636-6.737l7.142-7.192l6.636,6.737l1.57-1.621
	l4.913,4.964l-1.621,1.57c1.689,2.702,2.938,8.813,3.749,18.336l-10.84-11.143L37.608,36.052l6.382,6.433l11.498,9.776l-6.636,6.686
	l-9.726-11.548l-6.483-6.433l-6.382,6.433l-9.725,11.548l-6.635-6.686l11.397-9.776L27.781,36.002z"/>
</svg>
