<?xml version="1.0" encoding="utf-8"?>
<!-- Generator: Adobe Illustrator 17.0.0, SVG Export Plug-In . SVG Version: 6.00 Build 0)  -->
<!DOCTYPE svg PUBLIC "-//W3C//DTD SVG 1.1//EN" "http://www.w3.org/Graphics/SVG/1.1/DTD/svg11.dtd">
<svg version="1.1" id="Layer_1" xmlns="http://www.w3.org/2000/svg" xmlns:xlink="http://www.w3.org/1999/xlink" x="0px" y="0px"
	 width="64px" height="64px" viewBox="0 0 64 64" enable-background="new 0 0 64 64" xml:space="preserve">
<path fill="#C4C4C4" d="M9.141,54.145c-1.238,0-1.745-0.877-1.126-1.95l22.859-39.592c0.619-1.072,1.632-1.072,2.251,0
	l22.859,39.592c0.619,1.072,0.113,1.95-1.126,1.95H9.141z M31.984,48.835c1.426,0,2.626-1.199,2.626-2.593
	c0-1.427-1.199-2.626-2.626-2.626c-1.426,0-2.594,1.199-2.594,2.626C29.39,47.636,30.558,48.835,31.984,48.835z M33.349,41.539
	c0.248,0,0.459-0.202,0.47-0.45l0.609-13.958c0.011-0.247-0.183-0.45-0.431-0.45h-4.06c-0.248,0-0.441,0.202-0.43,0.45l0.64,13.958
	c0.011,0.247,0.223,0.45,0.471,0.45H33.349z"/>
</svg>
