<?xml version="1.0" encoding="utf-8"?>
<!-- Generator: Adobe Illustrator 17.0.0, SVG Export Plug-In . SVG Version: 6.00 Build 0)  -->
<!DOCTYPE svg PUBLIC "-//W3C//DTD SVG 1.1//EN" "http://www.w3.org/Graphics/SVG/1.1/DTD/svg11.dtd">
<svg version="1.1" id="Layer_1" xmlns="http://www.w3.org/2000/svg" xmlns:xlink="http://www.w3.org/1999/xlink" x="0px" y="0px"
	 width="960px" height="460px" viewBox="0 0 960 460" enable-background="new 0 0 960 460" xml:space="preserve">
<g id="Layer_1_1_">
	<g opacity="0.7">
		<path fill="#348244" d="M44,53v105h130V53h-33.078l-28.606-20.914c0.003-0.059,0.018-0.18,0.018-0.239
			c0-1.841-1.493-3.366-3.333-3.366s-3.333,1.477-3.333,3.317c0,0.06,0.014,0.237,0.018,0.296L77.078,53H44z M159,68v75H59V68H159z
			 M106.432,34.014c0.612,0.746,1.528,1.167,2.568,1.167s1.957-0.388,2.568-1.134L137.52,53H80.481L106.432,34.014z"/>
		<path fill="#348244" d="M502,57v200h289V57h-85.271l-54.442-40.245c0.008-0.111,0.033-0.562,0.033-0.676
			c0-3.504-2.84-6.519-6.343-6.519s-6.343,2.754-6.343,6.258c0,0.113,0.025,0.869,0.033,0.98L584.227,57H502z M762,85v143H531V85
			H762z M640.092,20.425c1.163,1.419,2.906,1.997,4.886,1.997s3.723-0.406,4.886-1.826L699.255,57H590.704L640.092,20.425z"/>
		<polygon fill="#348244" points="466,78 466,0 451,0 451,63 347,63 347,0 332,0 332,78 		"/>
		<path fill="#348244" d="M149.579,383l-36.364-26.82c0.004-0.074,0.022-0.344,0.022-0.421c0-2.339-1.897-4.336-4.237-4.336
			s-4.237,1.849-4.237,4.188c0,0.076,0.018,0.521,0.022,0.596L68.42,383H26v97h19v-78h128v78h19v-97H149.579z M72.746,383
			l32.989-24.369c0.778,0.949,1.943,1.366,3.264,1.366s2.487-0.317,3.264-1.267l32.99,24.27H72.746z"/>
		<path fill="#348244" d="M823,226v145h104V226h-25.602l-22.795-16.658c0.003-0.047,0.014-0.138,0.014-0.186
			c0-1.467-1.189-2.68-2.656-2.68s-2.656,1.176-2.656,2.643c0,0.048,0.012,0.183,0.015,0.229L850.524,226H823z M915,238v121h-80V238
			H915z M873.915,210.878c0.487,0.595,1.218,0.934,2.046,0.934c0.829,0,1.56-0.315,2.046-0.909L898.687,226h-45.451L873.915,210.878
			z"/>
		<path fill="#348244" d="M466,348v73h90v-73h-22.828l-19.802-14.406c0.002-0.041,0.012-0.088,0.012-0.129
			c0-1.275-1.033-2.313-2.308-2.313c-1.273,0-2.308,1.03-2.308,2.304c0,0.043,0.01,0.098,0.013,0.14L488.977,348H466z M546,358v52
			h-70v-52H546z M509.297,334.928c0.424,0.517,1.058,0.844,1.777,0.844s1.354-0.322,1.777-0.839L530.816,348h-39.484
			L509.297,334.928z"/>
		<path fill="#348244" d="M201,31v232h104V31h-26.061l-22.795-16.84c0.003-0.047,0.014-0.229,0.014-0.277
			c0-1.467-1.189-2.726-2.656-2.726s-2.656,1.154-2.656,2.621c0,0.048,0.012,0.354,0.015,0.399L228.065,31H201z M293,43v208h-80V43
			H293z M251.456,15.696c0.487,0.595,1.218,0.843,2.046,0.843c0.829,0,1.56-0.179,2.046-0.772L276.227,31h-45.451L251.456,15.696z"
			/>
		<path fill="#348244" d="M624,315v134h166V315h-41.951l-36.364-26.926c0.005-0.074,0.022-0.396,0.022-0.474
			c0-2.339-1.898-4.362-4.238-4.362s-4.236,1.836-4.236,4.174c0,0.076,0.018,0.621,0.021,0.695L666.891,315H624z M771,334v96H643
			v-96H771z M704.205,290.525c0.777,0.949,1.943,1.313,3.264,1.313c1.322,0,2.488-0.238,3.265-1.188l32.99,24.35h-72.508
			L704.205,290.525z"/>
		<path fill="#348244" d="M256.192,306.434L267.242,447l140.566-11.05l-11.05-140.566l-36.429,2.863l-32.591-20.142
			c-0.001-0.063,0.002-0.213-0.003-0.276c-0.156-1.982-1.894-3.508-3.877-3.352s-3.466,1.866-3.311,3.85
			c0.005,0.064,0.039,0.289,0.047,0.352l-29.043,24.975L256.192,306.434z M382.062,312.588l8.542,108.665l-108.665,8.542
			l-8.542-108.665L382.062,312.588z M321.563,280.682c0.722,0.751,1.744,1.109,2.863,1.021c1.12-0.088,2.077-0.559,2.673-1.413
			l29.564,18.245l-61.447,4.83L321.563,280.682z"/>
		<path fill="#348244" d="M846.222,49.44l7.669,80.636l99.551-9.468l-7.669-80.636l-25.323,2.409l-23.461-13.934
			c-0.001-0.045,0.002-0.13-0.003-0.176c-0.134-1.412-1.389-2.468-2.8-2.333c-1.413,0.134-2.449,1.377-2.315,2.79
			c0.004,0.045,0.026,0.164,0.034,0.209l-20.413,18.102L846.222,49.44z M935.958,52.959l5.492,57.739l-77.649,7.386l-5.491-57.74
			L935.958,52.959z M892.617,30.354c0.524,0.527,1.258,0.792,2.057,0.716c0.797-0.076,1.469-0.453,1.884-1.07l21.282,12.628
			l-43.74,4.161L892.617,30.354z"/>
		<path fill="#348244" d="M406.651,125.557c-1.657-0.191-3.158,1.008-3.396,2.65l-28.406,15.782l-29.912-3.448l-11.155,96.748
			l119.279,13.753l11.156-96.749l-30.794-3.55l-24.077-21.821c0.009-0.054,0.012,0.034,0.019-0.021
			C409.56,127.21,408.34,125.751,406.651,125.557z M403.264,128.202l-0.005,0.003C403.263,128.192,403.265,128.187,403.264,128.202z
			 M449.435,166.018l-7.946,68.917l-92.772-10.697l7.946-68.917L449.435,166.018z M430.301,150.382l-52.329-6.034l25.772-14.282
			c0.483,0.75,1.256,1.429,2.209,1.539c0.954,0.11,1.871-0.443,2.509-1.063L430.301,150.382z"/>
		<path fill="#348244" d="M84.017,213.081c-1.064,0-1.926,0.874-1.942,1.934L65.389,227H46v62h76v-62h-19.356l-16.692-11.982
			c0.002-0.035,0.01,0.006,0.01-0.029C85.962,213.915,85.09,213.081,84.017,213.081z M113,236v44H55v-44H113z M100.659,227H67.375
			l15.144-10.857c0.357,0.436,0.892,0.792,1.499,0.792c0.606,0,1.142-0.393,1.498-0.829L100.659,227z"/>
	</g>
</g>
</svg>
