<?xml version="1.0" encoding="utf-8"?>
<!-- Generator: Adobe Illustrator 16.0.3, SVG Export Plug-In . SVG Version: 6.00 Build 0)  -->
<!DOCTYPE svg PUBLIC "-//W3C//DTD SVG 1.1//EN" "http://www.w3.org/Graphics/SVG/1.1/DTD/svg11.dtd">
<svg version="1.1" id="Layer_1" xmlns="http://www.w3.org/2000/svg" xmlns:xlink="http://www.w3.org/1999/xlink" x="0px" y="0px"
	 width="100px" height="100px" viewBox="0 0 100 100" enable-background="new 0 0 100 100" xml:space="preserve">
<path fill="#3AAAE1" d="M90,25.696c-2.943,1.306-6.106,2.188-9.427,2.584c3.389-2.031,5.991-5.247,7.217-9.08
	c-3.172,1.881-6.685,3.247-10.423,3.982C74.373,19.993,70.107,18,65.387,18c-9.063,0-16.413,7.349-16.413,16.413
	c0,1.286,0.145,2.539,0.425,3.74c-13.641-0.685-25.735-7.219-33.83-17.149c-1.413,2.425-2.222,5.244-2.222,8.252
	c0,5.694,2.897,10.718,7.302,13.661c-2.69-0.085-5.221-0.823-7.434-2.053c-0.001,0.068-0.001,0.137-0.001,0.206
	c0,7.952,5.658,14.586,13.166,16.094c-1.377,0.375-2.827,0.576-4.324,0.576c-1.058,0-2.086-0.104-3.088-0.295
	c2.089,6.521,8.15,11.266,15.333,11.398c-5.617,4.402-12.694,7.026-20.384,7.026c-1.325,0-2.631-0.078-3.915-0.229
	c7.264,4.656,15.891,7.374,25.16,7.374c30.189,0,46.698-25.01,46.698-46.699c0-0.711-0.016-1.419-0.047-2.123
	C85.018,31.878,87.8,28.987,90,25.696L90,25.696z"/>
</svg>
