<?xml version="1.0" encoding="utf-8"?>
<!-- Generator: Adobe Illustrator 16.0.1, SVG Export Plug-In . SVG Version: 6.00 Build 0)  -->
<!DOCTYPE svg PUBLIC "-//W3C//DTD SVG 1.1//EN" "http://www.w3.org/Graphics/SVG/1.1/DTD/svg11.dtd">
<svg version="1.1" xmlns="http://www.w3.org/2000/svg" xmlns:xlink="http://www.w3.org/1999/xlink" x="0px" y="0px" width="100px"
	 height="100px" viewBox="-44.5 45.5 100 100" enable-background="new -44.5 45.5 100 100" xml:space="preserve">
<g id="Heart" display="none">
	<path display="inline" fill="#F10A0E" stroke="#FFFFFF" stroke-miterlimit="10" d="M-4.025,91.945c0,0-4.303-1.776-7.297,3.275
		c0,0-2.338-0.937-3.648,1.588c0,0-4.209,0.281-5.145,5.053c0,0-1.029,2.525-1.965,3.367c0,0-0.468,4.209,4.396,9.916
		c0,0,5.987,10.383,8.7,12.254c0,0,4.958,5.612,5.145,7.108c0,0,3.087,3.274,7.67,4.304c0,0,7.857,1.871,9.916-2.338
		c0,0,4.959-6.175,6.549-11.507c0,0,5.051-11.319,5.238-11.786c0,0,2.34-4.209-0.843-9.447c0,0-6.642,3.086-10.009-1.498
		c0,0-3.555-1.401-4.303-2.992c0,0-3.461-2.059-5.895-1.403c0,0-1.871-2.058-3.461-2.151l-0.188-1.31
		C0.837,94.378-2.81,95.033-4.025,91.945z"/>
	<path display="inline" fill="#F10A0E" stroke="#FFFFFF" stroke-miterlimit="10" d="M24.879,102.891c0,0,2.713-4.303,0.468-7.483
		c0,0,0.094-2.899-2.619-4.304c0,0-1.123-3.086-2.899-2.524c0,0-1.496,0-1.31,1.87c0,0-1.685,0.375-1.685,1.31
		c0,0-3.088,1.029-2.713,3.742c0,0-2.994,2.526,0.654,5.146c0,0,0.374,2.34,4.115,3.556C18.892,104.2,23.103,104.389,24.879,102.891
		z"/>
	<path display="inline" fill="#F10A0E" stroke="#FFFFFF" stroke-miterlimit="10" d="M-22.08,102.984c0,0-1.964-0.75-1.31-4.211
		c0,0-3.929-15.34,6.829-21.328c0,0,3.929-5.424,5.893-3.834c0,0,2.152,0.935,0.656,4.957c0,0,3.18,3.088,1.871,5.427
		c0,0,1.403,1.87-0.188,3.087c0,0,0.936,2.338-1.122,3.555c0,0-2.339,1.59-2.245,3.555c0,0-2.9-0.375-3.648,1.685
		c0,0-5.051,0.842-5.332,5.331C-20.677,101.206-21.051,103.171-22.08,102.984z"/>
	<path display="inline" fill="#F10A0E" stroke="#FFFFFF" stroke-miterlimit="10" d="M-16.281,76.137c0,0,3.041-3.835,5.145-3.32
		c0,0,2.385,0.326,2.105,4.115l-0.468,1.592l0.702,0.795c0,0,1.216-6.127,2.994-5.895c0,0,3.694-3.929,2.712-10.523
		c0,0-4.256,0.141-10.103,6.502C-13.192,69.402-16.374,73.236-16.281,76.137z"/>
	<path display="inline" fill="#F10A0E" stroke="#FFFFFF" stroke-miterlimit="10" d="M26.002,95.454c0,0,1.965-5.894,0.562-9.495
		c0,0,1.685-2.434,2.946,0c0,0,1.029,1.402,1.777,0.234l1.17,1.027c0,0,1.59,0.281,1.776-1.074l-1.964-3.229l2.759-0.094
		c0,0,1.029-1.87,0.047-3.133l-2.524-0.375l1.402-1.215c0,0,0.141-1.824-1.123-1.73l-1.824,2.572l-12.16,2.386
		c0,0-2.76-0.281-3.508,3.694c0,0-1.215,5.612-4.49,10.01c0,0,1.217,3.087,0.982,4.256c0,0-0.796,0.889,2.432,2.338l0.048-0.607
		c0,0-2.386-1.824-1.777-3.881c0,0,0.468-1.543,1.029-1.73c0,0-0.421-2.526,2.807-4.069c0,0,0.654-1.31,1.589-1.356
		c0,0,0.422-2.105,1.778-2.059c0,0,2.104-0.561,3.414,2.9C23.148,90.824,25.58,91.712,26.002,95.454z"/>
	<path display="inline" fill="#F10A0E" stroke="#FFFFFF" stroke-miterlimit="10" d="M31.801,71.646c0,0-7.389-0.467-12.723,1.685
		c0,0-4.49,3.555-9.914,2.526c0,0-3.274,0.069-4.117-0.586c0,0-2.783,1.521-3.228,4.607c0,0,3.882-0.749,4.162,2.432
		c0,0-0.093,4.49-4.021,5.707c0,0-3.648,0.653-5.426,3.086c0,0,0.655,3.273,4.584,2.619c0,0,1.309-3.647,4.771-3.742
		c0,0-4.116,1.777-4.209,5.145c0,0,1.964,0.936,3.087,2.059c0,0,2.992-0.281,6.455,1.871c0,0,0-2.433-1.123-4.022
		c0,0,4.21-6.081,4.678-10.384c0,0,0.748-4.396,4.021-3.836l11.975-2.338C30.772,78.477,32.549,74.641,31.801,71.646z M31.281,75.18
		c-0.244,1.648-0.66,2.952-0.929,2.912s-0.288-1.408-0.043-3.056s0.661-2.952,0.93-2.911C31.508,72.164,31.525,73.532,31.281,75.18z
		"/>
	<g display="inline">
		<path fill="#F10A0E" stroke="#FFFFFF" stroke-miterlimit="10" d="M-6.832,63.602c0,0,2.479-1.543,4.115-1.121
			c0,0,1.497,5.145-2.338,11.317c0,0,3.181-4.302,5.146-5.425c0,0-1.59-7.766-4.21-12.161c-2.619-4.396-1.683-6.455-1.683-6.455
			s-2.526-1.029-3.648,1.029l2.151,6.642c0,0-5.52-5.52-11.226-2.432c0,0-1.216,2.245,1.31,3.273c0,0,1.871-2.338,6.548,0.842
			C-10.667,59.111-7.581,61.357-6.832,63.602z M-7.502,50.771c-0.794,0.194-1.49,0.138-1.554-0.125
			c-0.064-0.265,0.526-0.634,1.32-0.829c0.794-0.193,1.489-0.137,1.554,0.127C-6.118,50.209-6.709,50.579-7.502,50.771z"/>
		<path fill="#F10A0E" stroke="#FFFFFF" stroke-miterlimit="10" d="M22.26,57.055c0,0-4.678-4.117-9.354-1.777
			c0,0-6.08,2.525-7.39,10.383l-0.842,0.842c0,0,2.245-13.95,3.274-15.061c0,0-1.402-1.965-3.929-0.75c0,0-2.9,6.83-3.087,16.933
			l0.047,0.888c0,0-2.76,1.871-5.8,5.893l-0.889-0.279c0,0-1.73-0.046-2.573,5.893c0,0,1.638,1.685,0.842,3.977
			c0,0,1.029,1.684-0.234,3.461c0,0,0.421,2.104-0.795,3.368c0,0-2.105,0.842-2.572,2.853c0,0,2.759-3.508,6.734-2.525
			c0,0,1.872-2.807,5.613-3.977c0,0-2.713-9.447,4.491-13.002c0,0,5.237-1.871,8.139,1.123c0,0,4.771-1.777,5.238-2.993
			c0,0-1.217-4.864-9.354-6.642c0,0,1.028-10.29,10.853-6.268C20.67,59.393,22.728,58.738,22.26,57.055z M4.479,50.839
			c0.038-0.269,0.724-0.395,1.532-0.282c0.811,0.113,1.436,0.424,1.396,0.691c-0.035,0.27-0.723,0.395-1.531,0.281
			C5.067,51.417,4.441,51.107,4.479,50.839z M21.586,58.428c-0.449,0.43-0.965,0.621-1.152,0.426
			c-0.188-0.196,0.023-0.705,0.474-1.135c0.449-0.431,0.966-0.621,1.152-0.425C22.248,57.49,22.035,57.998,21.586,58.428z"/>
	</g>
</g>
<g id="Visit" display="none">
	<polygon display="inline" fill="#CECECE" stroke="#FFFFFF" stroke-miterlimit="10" points="40.5,87.5 10.5,87.5 10.5,50.5 
		-29.5,103.5 0.5,103.5 0.5,139.5 	"/>
</g>
<g id="Tweet" display="none">
	<path display="inline" fill="#3AAAE1" d="M47.5,68.196c-2.943,1.306-6.106,2.188-9.427,2.584c3.389-2.031,5.991-5.247,7.217-9.08
		c-3.172,1.881-6.684,3.247-10.423,3.982c-2.994-3.189-7.259-5.183-11.98-5.183c-9.064,0-16.413,7.349-16.413,16.413
		c0,1.286,0.145,2.539,0.425,3.74c-13.641-0.685-25.735-7.219-33.83-17.149c-1.413,2.425-2.222,5.244-2.222,8.252
		c0,5.694,2.897,10.718,7.302,13.661c-2.69-0.085-5.221-0.823-7.434-2.053c-0.001,0.068-0.001,0.137-0.001,0.206
		c0,7.952,5.658,14.586,13.166,16.094c-1.377,0.375-2.827,0.576-4.324,0.576c-1.058,0-2.086-0.104-3.088-0.295
		c2.089,6.521,8.15,11.266,15.333,11.398c-5.617,4.402-12.694,7.026-20.384,7.026c-1.325,0-2.631-0.078-3.915-0.229
		c7.264,4.656,15.891,7.374,25.16,7.374c30.189,0,46.698-25.01,46.698-46.699c0-0.711-0.017-1.419-0.048-2.123
		C42.517,74.378,45.3,71.487,47.5,68.196L47.5,68.196z"/>
</g>
<g id="Twitter">
	<path fill="#3AAAE1" d="M54.73,64.965c-3.623,1.605-7.516,2.691-11.602,3.18c4.17-2.5,7.374-6.458,8.882-11.176
		c-3.904,2.314-8.227,3.996-12.828,4.901c-3.685-3.925-8.935-6.379-14.745-6.379c-11.155,0-20.201,9.044-20.201,20.201
		c0,1.582,0.179,3.125,0.523,4.604c-16.789-0.843-31.673-8.886-41.637-21.106c-1.738,2.983-2.735,6.454-2.735,10.156
		c0,7.008,3.566,13.19,8.987,16.812c-3.312-0.104-6.426-1.013-9.149-2.526c-0.002,0.085-0.002,0.169-0.002,0.254
		c0,9.787,6.963,17.952,16.204,19.808c-1.695,0.461-3.479,0.709-5.322,0.709c-1.301,0-2.567-0.127-3.801-0.362
		c2.571,8.024,10.031,13.864,18.871,14.027c-6.914,5.419-15.624,8.648-25.088,8.648c-1.631,0-3.238-0.096-4.819-0.282
		c8.939,5.731,19.558,9.075,30.965,9.075c37.156,0,57.475-30.78,57.475-57.476c0-0.874-0.021-1.746-0.059-2.612
		C48.598,72.572,52.022,69.015,54.73,64.965L54.73,64.965z"/>
</g>
<g id="Download" display="none">
	<path display="inline" fill-rule="evenodd" clip-rule="evenodd" fill="#FFD800" d="M26.298,127.165c-1.087,0-2.704,0-4.657,0
		l4.413-4.414c1.237-1.24,2.162-2.671,2.777-4.196c8.074-1.227,14.269-8.177,14.269-16.592c0-9.279-7.521-16.805-16.801-16.805
		c-3.254,0-6.265,0.965-8.838,2.564c-0.291-1.174-0.752-2.268-1.345-3.286C12.464,75.039,3.385,68.36-7.306,68.36
		c-13.92,0-25.202,11.281-25.202,25.201c0,9.686,5.468,18.083,13.481,22.302c0.41,2.521,1.554,4.943,3.499,6.888l4.14,4.14
		c-16.629-2.015-29.522-16.156-29.522-33.329c0-18.56,15.044-33.604,33.604-33.604c12.611,0,23.586,6.959,29.333,17.23
		c1.395-0.237,2.806-0.431,4.271-0.431c13.92,0,25.202,11.287,25.202,25.206C51.5,115.879,40.218,127.165,26.298,127.165z
		 M-3.649,110.869l4.712,4.711V90.74c0-2.323,1.879-4.202,4.199-4.202c2.32,0,4.201,1.879,4.201,4.202v24.84l4.709-4.711
		c1.64-1.641,4.302-1.641,5.941,0c1.639,1.643,1.639,4.301,0,5.941L8.232,128.691c-1.639,1.641-4.299,1.641-5.94,0l-11.878-11.881
		c-1.642-1.641-1.642-4.299,0-5.941C-7.948,109.229-5.287,109.229-3.649,110.869z"/>
</g>
<g id="Dribbble" display="none">
	<g display="inline">
		<g>
			<defs>
				<path id="SVGID_1_" d="M-4.465,143.977c-3.18-0.65-6.309-1.621-9.298-2.887c-2.933-1.24-5.762-2.776-8.408-4.563
					c-2.618-1.769-5.081-3.801-7.318-6.037c-2.237-2.237-4.269-4.7-6.038-7.318c-1.787-2.646-3.322-5.475-4.563-8.408
					c-1.264-2.989-2.235-6.118-2.886-9.298c-0.667-3.26-1.005-6.611-1.005-9.965s0.338-6.706,1.005-9.966
					c0.651-3.179,1.622-6.308,2.886-9.297c1.241-2.934,2.777-5.763,4.563-8.408c1.769-2.618,3.801-5.08,6.038-7.318
					s4.7-4.269,7.318-6.037c2.646-1.787,5.475-3.323,8.408-4.563c2.989-1.264,6.118-2.236,9.298-2.887
					c3.26-0.667,6.612-1.005,9.965-1.005c3.352,0,6.706,0.338,9.964,1.005c3.18,0.651,6.309,1.623,9.298,2.887
					c2.934,1.24,5.763,2.776,8.408,4.563c2.619,1.769,5.081,3.799,7.319,6.037c2.237,2.238,4.269,4.7,6.038,7.318
					c1.787,2.646,3.323,5.475,4.563,8.408c1.265,2.989,2.236,6.118,2.887,9.297c0.666,3.26,1.006,6.612,1.006,9.966
					s-0.34,6.705-1.006,9.965c-0.65,3.18-1.622,6.309-2.887,9.298c-1.24,2.934-2.776,5.763-4.563,8.408
					c-1.769,2.618-3.801,5.081-6.038,7.318c-2.238,2.236-4.7,4.269-7.319,6.037c-2.645,1.787-5.475,3.323-8.408,4.563
					c-2.989,1.266-6.118,2.236-9.298,2.887c-3.259,0.667-6.612,1.005-9.964,1.005C2.147,144.981-1.206,144.644-4.465,143.977"/>
			</defs>
			<clipPath id="SVGID_2_">
				<use xlink:href="#SVGID_1_"  overflow="visible"/>
			</clipPath>
			<g transform="matrix(1 0 0 1 -3.814697e-06 0)" clip-path="url(#SVGID_2_)">
				
					<image overflow="visible" width="900" height="900" xlink:href="84ED15A0E17E85AE.jpg"  transform="matrix(0.129 0 0 0.129 -52.6045 37.3633)">
				</image>
			</g>
		</g>
		<g>
			<defs>
				<path id="SVGID_3_" d="M5.5,53.244c23.337,0,42.257,18.918,42.257,42.256S28.837,137.756,5.5,137.756
					S-36.757,118.838-36.757,95.5S-17.837,53.244,5.5,53.244L5.5,53.244z"/>
			</defs>
			<clipPath id="SVGID_4_">
				<use xlink:href="#SVGID_3_"  overflow="visible"/>
			</clipPath>
			<g transform="matrix(1 0 0 1 -3.814697e-06 0)" clip-path="url(#SVGID_4_)">
				
					<image overflow="visible" width="900" height="900" xlink:href="84ED15A0E17E85A9.jpg"  transform="matrix(0.129 0 0 0.129 -52.6045 37.3633)">
				</image>
			</g>
		</g>
		<g>
			<defs>
				<path id="SVGID_5_" d="M-4.465,143.977c-3.18-0.65-6.309-1.621-9.298-2.887c-2.933-1.24-5.762-2.776-8.408-4.563
					c-2.618-1.769-5.081-3.801-7.318-6.037c-2.237-2.237-4.269-4.7-6.038-7.318c-1.787-2.646-3.322-5.475-4.563-8.408
					c-1.264-2.989-2.235-6.118-2.886-9.298c-0.667-3.26-1.005-6.611-1.005-9.965s0.338-6.706,1.005-9.966
					c0.651-3.179,1.622-6.308,2.886-9.297c1.241-2.934,2.777-5.763,4.563-8.408c1.769-2.618,3.801-5.08,6.038-7.318
					s4.7-4.269,7.318-6.037c2.646-1.787,5.475-3.323,8.408-4.563c2.989-1.264,6.118-2.236,9.298-2.887
					c3.26-0.667,6.612-1.005,9.965-1.005c3.352,0,6.706,0.338,9.964,1.005c3.18,0.651,6.309,1.623,9.298,2.887
					c2.934,1.24,5.763,2.776,8.408,4.563c2.619,1.769,5.081,3.799,7.319,6.037c2.237,2.238,4.269,4.7,6.038,7.318
					c1.787,2.646,3.323,5.475,4.563,8.408c1.265,2.989,2.236,6.118,2.887,9.297c0.666,3.26,1.006,6.612,1.006,9.966
					s-0.34,6.705-1.006,9.965c-0.65,3.18-1.622,6.309-2.887,9.298c-1.24,2.934-2.776,5.763-4.563,8.408
					c-1.769,2.618-3.801,5.081-6.038,7.318c-2.238,2.236-4.7,4.269-7.319,6.037c-2.645,1.787-5.475,3.323-8.408,4.563
					c-2.989,1.266-6.118,2.236-9.298,2.887c-3.259,0.667-6.612,1.005-9.964,1.005C2.147,144.981-1.206,144.644-4.465,143.977"/>
			</defs>
			<defs>
				<path id="SVGID_6_" d="M6.181,59.136c18.038,0,32.659,9.099,32.659,20.321S24.219,99.778,6.181,99.778
					c-18.037,0-32.659-9.099-32.659-20.321S-11.855,59.136,6.181,59.136L6.181,59.136z"/>
			</defs>
			<clipPath id="SVGID_7_">
				<use xlink:href="#SVGID_5_"  overflow="visible"/>
			</clipPath>
			<clipPath id="SVGID_8_" clip-path="url(#SVGID_7_)">
				<use xlink:href="#SVGID_6_"  overflow="visible"/>
			</clipPath>
			<g transform="matrix(1 0 0 1 -3.814697e-06 0)" clip-path="url(#SVGID_8_)">
				
					<image overflow="visible" width="900" height="900" xlink:href="84ED15A0E17E85A8.jpg"  transform="matrix(0.129 0 0 0.129 -52.6045 37.3633)">
				</image>
			</g>
		</g>
		<g>
			<defs>
				<path id="SVGID_9_" d="M5.5,53.244c23.337,0,42.257,18.918,42.257,42.256S28.837,137.756,5.5,137.756
					S-36.757,118.838-36.757,95.5S-17.837,53.244,5.5,53.244L5.5,53.244z"/>
			</defs>
			<defs>
				<path id="SVGID_10_" d="M6.181,59.136c18.038,0,32.659,9.099,32.659,20.321S24.219,99.778,6.181,99.778
					c-18.037,0-32.659-9.099-32.659-20.321S-11.855,59.136,6.181,59.136L6.181,59.136z"/>
			</defs>
			<clipPath id="SVGID_11_">
				<use xlink:href="#SVGID_9_"  overflow="visible"/>
			</clipPath>
			<clipPath id="SVGID_12_" clip-path="url(#SVGID_11_)">
				<use xlink:href="#SVGID_10_"  overflow="visible"/>
			</clipPath>
			<g transform="matrix(1 0 0 1 -3.814697e-06 0)" clip-path="url(#SVGID_12_)">
				
					<image overflow="visible" width="900" height="900" xlink:href="84ED15A0E17E85A7.jpg"  transform="matrix(0.129 0 0 0.129 -52.6045 37.3633)">
				</image>
			</g>
		</g>
		<g>
			<defs>
				<path id="SVGID_13_" d="M-12.566,57.229c0,0,2.229-0.988,4.353-1.753c1.777-0.638,3.585-1,3.585-1s0.134-0.088,0.151-0.065
					c0.682,0.898,13.937,18.449,21.879,37.101c8.967,21.057,11.79,39.518,11.79,39.518l-7.021,4.453c0,0-2.585-17.903-11.449-38.716
					C2.458,77.362-12.566,57.229-12.566,57.229L-12.566,57.229z"/>
			</defs>
			<clipPath id="SVGID_14_">
				<use xlink:href="#SVGID_13_"  overflow="visible"/>
			</clipPath>
			<g transform="matrix(1 0 0 1 -3.814697e-06 0)" clip-path="url(#SVGID_14_)">
				
					<image overflow="visible" width="900" height="900" xlink:href="84ED15A0E17E85B6.jpg"  transform="matrix(0.129 0 0 0.129 -52.6045 37.3633)">
				</image>
			</g>
		</g>
		<g>
			<defs>
				<path id="SVGID_15_" d="M-4.465,143.977c-3.18-0.65-6.309-1.621-9.298-2.887c-2.933-1.24-5.762-2.776-8.408-4.563
					c-2.618-1.769-5.081-3.801-7.318-6.037c-2.237-2.237-4.269-4.7-6.038-7.318c-1.787-2.646-3.322-5.475-4.563-8.408
					c-1.264-2.989-2.235-6.118-2.886-9.298c-0.667-3.26-1.005-6.611-1.005-9.965s0.338-6.706,1.005-9.966
					c0.651-3.179,1.622-6.308,2.886-9.297c1.241-2.934,2.777-5.763,4.563-8.408c1.769-2.618,3.801-5.08,6.038-7.318
					s4.7-4.269,7.318-6.037c2.646-1.787,5.475-3.323,8.408-4.563c2.989-1.264,6.118-2.236,9.298-2.887
					c3.26-0.667,6.612-1.005,9.965-1.005c3.352,0,6.706,0.338,9.964,1.005c3.18,0.651,6.309,1.623,9.298,2.887
					c2.934,1.24,5.763,2.776,8.408,4.563c2.619,1.769,5.081,3.799,7.319,6.037c2.237,2.238,4.269,4.7,6.038,7.318
					c1.787,2.646,3.323,5.475,4.563,8.408c1.265,2.989,2.236,6.118,2.887,9.297c0.666,3.26,1.006,6.612,1.006,9.966
					s-0.34,6.705-1.006,9.965c-0.65,3.18-1.622,6.309-2.887,9.298c-1.24,2.934-2.776,5.763-4.563,8.408
					c-1.769,2.618-3.801,5.081-6.038,7.318c-2.238,2.236-4.7,4.269-7.319,6.037c-2.645,1.787-5.475,3.323-8.408,4.563
					c-2.989,1.266-6.118,2.236-9.298,2.887c-3.259,0.667-6.612,1.005-9.964,1.005C2.147,144.981-1.206,144.644-4.465,143.977"/>
			</defs>
			<defs>
				<path id="SVGID_16_" d="M-12.566,57.229c0,0,2.229-0.988,4.353-1.753c1.777-0.638,3.585-1,3.585-1s0.134-0.088,0.151-0.065
					c0.682,0.898,13.937,18.449,21.879,37.101c8.967,21.057,11.79,39.518,11.79,39.518l-7.021,4.453c0,0-2.585-17.903-11.449-38.716
					C2.458,77.362-12.566,57.229-12.566,57.229L-12.566,57.229z"/>
			</defs>
			<clipPath id="SVGID_17_">
				<use xlink:href="#SVGID_15_"  overflow="visible"/>
			</clipPath>
			<clipPath id="SVGID_18_" clip-path="url(#SVGID_17_)">
				<use xlink:href="#SVGID_16_"  overflow="visible"/>
			</clipPath>
			<g transform="matrix(1 0 0 1 -3.814697e-06 0)" clip-path="url(#SVGID_18_)">
				
					<image overflow="visible" width="900" height="900" xlink:href="84ED15A0E17E85B9.jpg"  transform="matrix(0.129 0 0 0.129 -52.6045 37.3633)">
				</image>
			</g>
		</g>
		<g>
			<defs>
				<path id="SVGID_19_" d="M5.5,53.244c23.337,0,42.257,18.918,42.257,42.256S28.837,137.756,5.5,137.756
					S-36.757,118.838-36.757,95.5S-17.837,53.244,5.5,53.244L5.5,53.244z"/>
			</defs>
			<defs>
				<path id="SVGID_20_" d="M-12.566,57.229c0,0,2.229-0.988,4.353-1.753c1.777-0.638,3.585-1,3.585-1s0.134-0.088,0.151-0.065
					c0.682,0.898,13.937,18.449,21.879,37.101c8.967,21.057,11.79,39.518,11.79,39.518l-7.021,4.453c0,0-2.585-17.903-11.449-38.716
					C2.458,77.362-12.566,57.229-12.566,57.229L-12.566,57.229z"/>
			</defs>
			<clipPath id="SVGID_21_">
				<use xlink:href="#SVGID_19_"  overflow="visible"/>
			</clipPath>
			<clipPath id="SVGID_22_" clip-path="url(#SVGID_21_)">
				<use xlink:href="#SVGID_20_"  overflow="visible"/>
			</clipPath>
			<g transform="matrix(1 0 0 1 -3.814697e-06 0)" clip-path="url(#SVGID_22_)">
				
					<image overflow="visible" width="900" height="900" xlink:href="84ED15A0E17E85B8.jpg"  transform="matrix(0.129 0 0 0.129 -52.6045 37.3633)">
				</image>
			</g>
		</g>
		<g>
			<defs>
				<path id="SVGID_23_" d="M-36.746,94.159c0,0,0.049-2.034,0.266-3.943c0.201-1.771,0.57-3.43,0.57-3.43
					s19.964,0.458,42.245-6.035c19.869-5.791,27.082-16.973,27.082-16.973s1.102,0.918,2.152,2.013
					c0.56,0.585,1.121,1.177,1.574,1.688c0.587,0.661,0.997,1.171,0.997,1.171s-8.2,11.987-28.978,18.714
					C-13.869,94.819-36.746,94.159-36.746,94.159L-36.746,94.159z"/>
			</defs>
			<clipPath id="SVGID_24_">
				<use xlink:href="#SVGID_23_"  overflow="visible"/>
			</clipPath>
			<g transform="matrix(1 0 0 1 -3.814697e-06 0)" clip-path="url(#SVGID_24_)">
				
					<image overflow="visible" width="900" height="900" xlink:href="84ED15A0E17E85BF.jpg"  transform="matrix(0.129 0 0 0.129 -52.6045 37.3633)">
				</image>
			</g>
		</g>
		<g>
			<defs>
				<path id="SVGID_25_" d="M-4.465,143.977c-3.18-0.65-6.309-1.621-9.298-2.887c-2.933-1.24-5.762-2.776-8.408-4.563
					c-2.618-1.769-5.081-3.801-7.318-6.037c-2.237-2.237-4.269-4.7-6.038-7.318c-1.787-2.646-3.322-5.475-4.563-8.408
					c-1.264-2.989-2.235-6.118-2.886-9.298c-0.667-3.26-1.005-6.611-1.005-9.965s0.338-6.706,1.005-9.966
					c0.651-3.179,1.622-6.308,2.886-9.297c1.241-2.934,2.777-5.763,4.563-8.408c1.769-2.618,3.801-5.08,6.038-7.318
					s4.7-4.269,7.318-6.037c2.646-1.787,5.475-3.323,8.408-4.563c2.989-1.264,6.118-2.236,9.298-2.887
					c3.26-0.667,6.612-1.005,9.965-1.005c3.352,0,6.706,0.338,9.964,1.005c3.18,0.651,6.309,1.623,9.298,2.887
					c2.934,1.24,5.763,2.776,8.408,4.563c2.619,1.769,5.081,3.799,7.319,6.037c2.237,2.238,4.269,4.7,6.038,7.318
					c1.787,2.646,3.323,5.475,4.563,8.408c1.265,2.989,2.236,6.118,2.887,9.297c0.666,3.26,1.006,6.612,1.006,9.966
					s-0.34,6.705-1.006,9.965c-0.65,3.18-1.622,6.309-2.887,9.298c-1.24,2.934-2.776,5.763-4.563,8.408
					c-1.769,2.618-3.801,5.081-6.038,7.318c-2.238,2.236-4.7,4.269-7.319,6.037c-2.645,1.787-5.475,3.323-8.408,4.563
					c-2.989,1.266-6.118,2.236-9.298,2.887c-3.259,0.667-6.612,1.005-9.964,1.005C2.147,144.981-1.206,144.644-4.465,143.977"/>
			</defs>
			<defs>
				<path id="SVGID_26_" d="M-36.746,94.159c0,0,0.049-2.034,0.266-3.943c0.201-1.771,0.57-3.43,0.57-3.43
					s19.964,0.458,42.245-6.035c19.869-5.791,27.082-16.973,27.082-16.973s1.102,0.918,2.152,2.013
					c0.56,0.585,1.121,1.177,1.574,1.688c0.587,0.661,0.997,1.171,0.997,1.171s-8.2,11.987-28.978,18.714
					C-13.869,94.819-36.746,94.159-36.746,94.159L-36.746,94.159z"/>
			</defs>
			<clipPath id="SVGID_27_">
				<use xlink:href="#SVGID_25_"  overflow="visible"/>
			</clipPath>
			<clipPath id="SVGID_28_" clip-path="url(#SVGID_27_)">
				<use xlink:href="#SVGID_26_"  overflow="visible"/>
			</clipPath>
			<g transform="matrix(1 0 0 1 -3.814697e-06 0)" clip-path="url(#SVGID_28_)">
				
					<image overflow="visible" width="900" height="900" xlink:href="84ED15A0E17E85BE.jpg"  transform="matrix(0.129 0 0 0.129 -52.6045 37.3633)">
				</image>
			</g>
		</g>
		<g>
			<defs>
				<path id="SVGID_29_" d="M5.5,53.244c23.337,0,42.257,18.918,42.257,42.256S28.837,137.756,5.5,137.756
					S-36.757,118.838-36.757,95.5S-17.837,53.244,5.5,53.244L5.5,53.244z"/>
			</defs>
			<defs>
				<path id="SVGID_30_" d="M-36.746,94.159c0,0,0.049-2.034,0.266-3.943c0.201-1.771,0.57-3.43,0.57-3.43
					s19.964,0.458,42.245-6.035c19.869-5.791,27.082-16.973,27.082-16.973s1.102,0.918,2.152,2.013
					c0.56,0.585,1.121,1.177,1.574,1.688c0.587,0.661,0.997,1.171,0.997,1.171s-8.2,11.987-28.978,18.714
					C-13.869,94.819-36.746,94.159-36.746,94.159L-36.746,94.159z"/>
			</defs>
			<clipPath id="SVGID_31_">
				<use xlink:href="#SVGID_29_"  overflow="visible"/>
			</clipPath>
			<clipPath id="SVGID_32_" clip-path="url(#SVGID_31_)">
				<use xlink:href="#SVGID_30_"  overflow="visible"/>
			</clipPath>
			<g transform="matrix(1 0 0 1 -3.814697e-06 0)" clip-path="url(#SVGID_32_)">
				
					<image overflow="visible" width="900" height="900" xlink:href="364420409749521C.jpg"  transform="matrix(0.129 0 0 0.129 -52.6045 37.3633)">
				</image>
			</g>
		</g>
		<g>
			<defs>
				<path id="SVGID_33_" d="M-20.472,128.813c0,0-1.752-1.319-3.192-2.66c-1.288-1.198-2.281-2.434-2.281-2.434
					s11.567-20.522,34.372-27.894c17.411-5.629,39.341-0.745,39.341-0.745c0.001,0,0.087,2.073-0.043,3.966
					c-0.116,1.662-0.45,3.176-0.45,3.176s-17.272-5.842-34.583,0.191C-12.37,111.146-20.472,128.813-20.472,128.813L-20.472,128.813
					z"/>
			</defs>
			<clipPath id="SVGID_34_">
				<use xlink:href="#SVGID_33_"  overflow="visible"/>
			</clipPath>
			<g transform="matrix(1 0 0 1 -3.814697e-06 0)" clip-path="url(#SVGID_34_)">
				
					<image overflow="visible" width="900" height="900" xlink:href="364420409749521D.jpg"  transform="matrix(0.129 0 0 0.129 -52.6045 37.3633)">
				</image>
			</g>
		</g>
		<g>
			<defs>
				<path id="SVGID_35_" d="M-4.465,143.977c-3.18-0.65-6.309-1.621-9.298-2.887c-2.933-1.24-5.762-2.776-8.408-4.563
					c-2.618-1.769-5.081-3.801-7.318-6.037c-2.237-2.237-4.269-4.7-6.038-7.318c-1.787-2.646-3.322-5.475-4.563-8.408
					c-1.264-2.989-2.235-6.118-2.886-9.298c-0.667-3.26-1.005-6.611-1.005-9.965s0.338-6.706,1.005-9.966
					c0.651-3.179,1.622-6.308,2.886-9.297c1.241-2.934,2.777-5.763,4.563-8.408c1.769-2.618,3.801-5.08,6.038-7.318
					s4.7-4.269,7.318-6.037c2.646-1.787,5.475-3.323,8.408-4.563c2.989-1.264,6.118-2.236,9.298-2.887
					c3.26-0.667,6.612-1.005,9.965-1.005c3.352,0,6.706,0.338,9.964,1.005c3.18,0.651,6.309,1.623,9.298,2.887
					c2.934,1.24,5.763,2.776,8.408,4.563c2.619,1.769,5.081,3.799,7.319,6.037c2.237,2.238,4.269,4.7,6.038,7.318
					c1.787,2.646,3.323,5.475,4.563,8.408c1.265,2.989,2.236,6.118,2.887,9.297c0.666,3.26,1.006,6.612,1.006,9.966
					s-0.34,6.705-1.006,9.965c-0.65,3.18-1.622,6.309-2.887,9.298c-1.24,2.934-2.776,5.763-4.563,8.408
					c-1.769,2.618-3.801,5.081-6.038,7.318c-2.238,2.236-4.7,4.269-7.319,6.037c-2.645,1.787-5.475,3.323-8.408,4.563
					c-2.989,1.266-6.118,2.236-9.298,2.887c-3.259,0.667-6.612,1.005-9.964,1.005C2.147,144.981-1.206,144.644-4.465,143.977"/>
			</defs>
			<defs>
				<path id="SVGID_36_" d="M-20.472,128.813c0,0-1.752-1.319-3.192-2.66c-1.288-1.198-2.281-2.434-2.281-2.434
					s11.567-20.522,34.372-27.894c17.411-5.629,39.341-0.745,39.341-0.745c0.001,0,0.087,2.073-0.043,3.966
					c-0.116,1.662-0.45,3.176-0.45,3.176s-17.272-5.842-34.583,0.191C-12.37,111.146-20.472,128.813-20.472,128.813L-20.472,128.813
					z"/>
			</defs>
			<clipPath id="SVGID_37_">
				<use xlink:href="#SVGID_35_"  overflow="visible"/>
			</clipPath>
			<clipPath id="SVGID_38_" clip-path="url(#SVGID_37_)">
				<use xlink:href="#SVGID_36_"  overflow="visible"/>
			</clipPath>
			<g transform="matrix(1 0 0 1 -3.814697e-06 0)" clip-path="url(#SVGID_38_)">
				
					<image overflow="visible" width="900" height="900" xlink:href="364420409749521F.jpg"  transform="matrix(0.129 0 0 0.129 -52.6045 37.3633)">
				</image>
			</g>
		</g>
		<g>
			<defs>
				<path id="SVGID_39_" d="M5.5,53.244c23.337,0,42.257,18.918,42.257,42.256S28.837,137.756,5.5,137.756
					S-36.757,118.838-36.757,95.5S-17.837,53.244,5.5,53.244L5.5,53.244z"/>
			</defs>
			<defs>
				<path id="SVGID_40_" d="M-20.472,128.813c0,0-1.752-1.319-3.192-2.66c-1.288-1.198-2.281-2.434-2.281-2.434
					s11.567-20.522,34.372-27.894c17.411-5.629,39.341-0.745,39.341-0.745c0.001,0,0.087,2.073-0.043,3.966
					c-0.116,1.662-0.45,3.176-0.45,3.176s-17.272-5.842-34.583,0.191C-12.37,111.146-20.472,128.813-20.472,128.813L-20.472,128.813
					z"/>
			</defs>
			<clipPath id="SVGID_41_">
				<use xlink:href="#SVGID_39_"  overflow="visible"/>
			</clipPath>
			<clipPath id="SVGID_42_" clip-path="url(#SVGID_41_)">
				<use xlink:href="#SVGID_40_"  overflow="visible"/>
			</clipPath>
			<g transform="matrix(1 0 0 1 -3.814697e-06 0)" clip-path="url(#SVGID_42_)">
				
					<image overflow="visible" width="900" height="900" xlink:href="364420409749521B.jpg"  transform="matrix(0.129 0 0 0.129 -52.6045 37.3633)">
				</image>
			</g>
		</g>
		<g>
			<defs>
				<polygon id="SVGID_43_" points="15.248,86.895 14.357,85.058 6.49,87.699 7.466,89.623 15.248,86.895 				"/>
			</defs>
			<clipPath id="SVGID_44_">
				<use xlink:href="#SVGID_43_"  overflow="visible"/>
			</clipPath>
			<g transform="matrix(1 0 0 1 -3.814697e-06 0)" clip-path="url(#SVGID_44_)">
				
					<image overflow="visible" width="900" height="900" xlink:href="3644204097495204.jpg"  transform="matrix(0.129 0 0 0.129 -52.6045 37.3633)">
				</image>
			</g>
		</g>
		<g>
			<defs>
				<polygon id="SVGID_45_" points="21.365,101.898 20.459,99.135 12.904,101.941 13.649,103.998 21.365,101.898 				"/>
			</defs>
			<clipPath id="SVGID_46_">
				<use xlink:href="#SVGID_45_"  overflow="visible"/>
			</clipPath>
			<g transform="matrix(1 0 0 1 -3.814697e-06 0)" clip-path="url(#SVGID_46_)">
				
					<image overflow="visible" width="900" height="900" xlink:href="3644204097495209.jpg"  transform="matrix(0.129 0 0 0.129 -52.6045 37.3633)">
				</image>
			</g>
		</g>
		<g>
			<defs>
				<path id="SVGID_47_" d="M-25.264,124.296l-0.467,0.649c0,0,2.477,2.657,2.579,2.738c0.101,0.081,3.45,2.805,3.45,2.805
					l0.386-0.753"/>
			</defs>
			<clipPath id="SVGID_48_">
				<use xlink:href="#SVGID_47_"  overflow="visible"/>
			</clipPath>
			<g transform="matrix(1 0 0 1 -3.814697e-06 0)" clip-path="url(#SVGID_48_)">
				
					<image overflow="visible" width="900" height="900" xlink:href="364420409749520A.jpg"  transform="matrix(0.129 0 0 0.129 -52.6045 37.3633)">
				</image>
			</g>
		</g>
		<g>
			<defs>
				<polygon id="SVGID_49_" points="21.973,134.411 23.712,133.568 28.611,130.829 29.139,130.513 30.482,129.723 30.851,129.512 
					31.747,131.092 29.244,133.464 24.16,135.492 21.814,136.256 21.63,134.911 21.973,134.411 				"/>
			</defs>
			<clipPath id="SVGID_50_">
				<use xlink:href="#SVGID_49_"  overflow="visible"/>
			</clipPath>
			<g transform="matrix(1 0 0 1 -3.814697e-06 0)" clip-path="url(#SVGID_50_)">
				
					<image overflow="visible" width="900" height="900" xlink:href="364420409749520B.jpg"  transform="matrix(0.129 0 0 0.129 -52.6045 37.3633)">
				</image>
			</g>
		</g>
		<g>
			<defs>
				<path id="SVGID_51_" d="M47.763,95.081l-0.026,1.87l-0.21,2.845l-0.158,1.082l-0.132,1.131l-0.026,0.448l-0.158,0.844
					l0.922,1.184l1.606-0.947c0,0-0.105-4.768-0.132-5.005c-0.026-0.236-0.21-2.266-0.21-2.266L47.763,95.081L47.763,95.081z"/>
			</defs>
			<clipPath id="SVGID_52_">
				<use xlink:href="#SVGID_51_"  overflow="visible"/>
			</clipPath>
			<g transform="matrix(1 0 0 1 -3.814697e-06 0)" clip-path="url(#SVGID_52_)">
				
					<image overflow="visible" width="900" height="900" xlink:href="364420409749520E.jpg"  transform="matrix(0.129 0 0 0.129 -52.6045 37.3633)">
				</image>
			</g>
		</g>
		<g>
			<defs>
				<polygon id="SVGID_53_" points="-35.982,95.424 -36.772,95.424 -36.72,94.159 -36.035,94.132 -35.982,95.424 				"/>
			</defs>
			<clipPath id="SVGID_54_">
				<use xlink:href="#SVGID_53_"  overflow="visible"/>
			</clipPath>
			<g transform="matrix(1 0 0 1 -3.814697e-06 0)" clip-path="url(#SVGID_54_)">
				
					<image overflow="visible" width="900" height="900" xlink:href="364420409749520F.jpg"  transform="matrix(0.129 0 0 0.129 -52.6045 37.3633)">
				</image>
			</g>
		</g>
		<g>
			<defs>
				<polygon id="SVGID_55_" points="37.911,68.949 38.122,68.606 38.992,69.634 38.701,69.923 37.911,68.949 				"/>
			</defs>
			<clipPath id="SVGID_56_">
				<use xlink:href="#SVGID_55_"  overflow="visible"/>
			</clipPath>
			<g transform="matrix(1 0 0 1 -3.814697e-06 0)" clip-path="url(#SVGID_56_)">
				
					<image overflow="visible" width="900" height="900" xlink:href="3644204097495224.jpg"  transform="matrix(0.129 0 0 0.129 -52.6045 37.3633)">
				</image>
			</g>
		</g>
		<g>
			<defs>
				<polygon id="SVGID_57_" points="-4.265,54.618 -4.476,54.407 -3.106,54.092 -3,54.302 -4.265,54.618 				"/>
			</defs>
			<clipPath id="SVGID_58_">
				<use xlink:href="#SVGID_57_"  overflow="visible"/>
			</clipPath>
			<g transform="matrix(1 0 0 1 -3.814697e-06 0)" clip-path="url(#SVGID_58_)">
				
					<image overflow="visible" width="900" height="900" xlink:href="364420409749522A.jpg"  transform="matrix(0.129 0 0 0.129 -52.6045 37.3633)">
				</image>
			</g>
		</g>
	</g>
</g>
<g id="Facebook" display="none">
	<g display="inline">
		<path fill="#3C5A98" d="M5.5,45.5c-27.614,0-50,22.386-50,50c0,10.626,3.325,20.471,8.977,28.571
			c4.023,5.766,9.223,10.647,15.262,14.285c7.524,4.532,16.337,3.144,25.761,3.144s18.237,1.389,25.761-3.144
			c6.039-3.638,11.239-8.52,15.262-14.285c5.652-8.101,8.977-17.945,8.977-28.571C55.5,67.886,33.114,45.5,5.5,45.5z"/>
		<path fill="#6D84B3" d="M40.456,131.215h-69.911c2.773,2.718,5.849,5.127,9.194,7.142c7.524,4.532,16.055,7.139,25.482,7.139
			L5.5,145.5l0,0l0,0c3.073,0,7.033-5,10-5c2,0,1.802,3.649,3.716,3.091c4.171-1.217,8.401-3.04,12.045-5.234
			C34.606,136.342,37.683,133.933,40.456,131.215z"/>
		<path fill="#FFFFFF" d="M19.216,108.738h13.739L33.581,95.5H19.216v-9.664c0-3.649,0.765-5.849,5.536-5.849
			c4.409,0,8.449,0.04,8.449,0.04l0.312-12.362c0,0-3.962-0.513-9.319-0.513c-13.23,0-18.973,8.158-18.973,17.043V95.5H-4.5v13.238
			h9.721v36.757c0.093,0.001,0.186,0.005,0.279,0.005c4.973,0,9.487-0.704,13.716-1.909V108.738z"/>
	</g>
</g>
<g id="Earth_1_" display="none">
	<g display="inline">
		<polygon id="Islands_4_" fill="#519904" points="-2.45,83.856 -3.122,82.734 -3.907,80.494 -3.347,79.821 -3.683,78.255 
			-5.698,79.821 -5.25,81.167 -4.691,83.293 -5.698,83.293 -5.698,84.301 -4.578,84.974 		"/>
		<polygon id="Islands_3_" fill="#519904" points="-8.498,82.285 -8.161,83.856 -6.481,83.072 -6.035,81.726 -6.706,81.055 		"/>
		<polygon id="Islands_2_" fill="#519904" points="-6.37,73.44 -6.035,72.543 -6.93,71.648 -8.722,71.538 -8.61,72.879 		"/>
		<polygon id="Islands_1_" fill="#519904" points="5.836,64.593 6.396,64.814 6.507,63.922 5.836,63.585 6.283,62.466 4.269,63.585 
			5.052,65.264 		"/>
		<polygon id="Islands" fill="#519904" points="10.762,61.346 9.644,60.785 8.859,61.571 10.315,61.793 		"/>
		<path id="Earth" fill="#519904" d="M5.5,45.667c-27.522,0-49.833,22.311-49.833,49.833s22.311,49.833,49.833,49.833
			c27.521,0,49.833-22.311,49.833-49.833S33.021,45.667,5.5,45.667z M-37.446,95.5c0-9.106,2.842-17.545,7.677-24.492l0.554,0.415
			l-0.334,1.345l1.23,0.337l-0.224-1.793l1.007-0.11v-2.354h1.008c0,0,0.177,0.458,0.364,0.937c0.204,0.524,0.42,1.08,0.42,1.08
			l1.12,1.231c0,0-1.344,0.335-1.791,0.335c-0.448,0-0.224,1.791-0.224,1.791l1.567,0.56l1.012-1.87l2.347-2.608l1.119-3.47
			l2.128-2.018l-1.232-0.894l1.345-0.895l0.111-1.233l-3.918,1.119l-0.124-0.147c2.134-1.813,4.445-3.422,6.908-4.795l1.838,0.8
			l-1.231,2.354h-2.464l-0.449,2.126h2.017l2.912-1.792l2.016-2.014l0.334-1.904l-2.911-0.224l2.016-1.344l1.904,0.337l-0.335,2.014
			l2.575-1.568l0.448,1.232l0.561,1.791l-1.456,1.793l-1.569,1.455l-2.352-0.337l1.121,2.35l-2.127-0.335l-3.583,3.695l0.896,1.232
			l2.911-0.225l2.464-0.784l3.137-0.335l1.455-0.336c0,0,0-0.896-0.112-1.454c-0.111-0.561,1.121,0.108,1.121,0.108l1.344-0.78
			l1.008-3.137l3.694-1.682l-0.559-0.895l0.896-1.12l-2.912-0.448l0.784-1.119l-3.695-1.234h-1.904l0.671-1.678l0.784-0.786
			l-0.062-0.062c3.116-0.717,6.358-1.112,9.694-1.112c5.198,0,10.18,0.924,14.792,2.617l-0.112,0.265l-1.865-0.125v1.12l0.747,0.497
			v0.996l0.621,0.871l-2.237-1.368l-1.492,0.746l0.746,1.743l0.373,1.99l0.994,1.121l2.363,0.372l-0.498,0.995l-0.497,1.495
			l2.116,1.367l-0.125,0.621l-3.98-3.359l-0.248,1.246l1.74,1.741l0.995,0.372l-2.238,0.498l-0.249,1.121l-1.616-1.619l-0.997-2.113
			l-0.374-2.117l-0.998,1.244l0.749,2.986l1.243,0.872l-0.497,2.86l-0.746-0.375l0.124,1.496l-1.121-0.124l-1.119-1.621h-1.367
			l-1.992-0.248l-1.992,0.125l-1.865,1.494l-1.245,2.114L1.02,76.463l-0.249,1.119v1.369l0.622,1.367l1.245-0.994l0.373,0.745
			l0.622,1.12l0.125,0.25l0.622,0.747L5.5,81.441l-0.125-2.739l1.367-1.741c0,0,0.07-0.297,0.148-0.636
			c0.105-0.452,0.226-0.981,0.226-0.981l0.497-1.371l0.874,0.124l-0.249,1.122l-0.5,2.487l2.367-0.249l0.872,0.249l-1.869,0.499
			l0.249,1.243L7.24,80.816l0.125,1.37L5.5,82.686l-0.373,0.995l-1.495-0.499H2.638v-2.116l-1.121,0.376v1.119l-3.11,2.489
			l-1.742,0.623l-0.747,0.87l-2.489-0.622l-0.125,1.119l1.617,0.625l-0.125,2.236l-4.479-0.125l-0.622,0.995l-0.622,1.744
			l-0.748,1.494l1.121,1.244l1.245,1.493l3.984-1.247l0.25-1.492l0.872-0.749l1.494-0.497l-0.125-0.995l1.37-0.373l1.99-0.373
			l1.245,1.492l2.24,1.62l0.995,1.615v0.746l1.244-0.746L5.626,94.63l0.248-1.246l-1.12-0.498L3.76,91.519l0.622-1.991L5.5,91.146
			l1.616,1.243l0.621,2.241l1.619,1.243l0.376,1.371l0.747-1.619l-0.25-0.747l0.373-0.622l2.362-1.991l0.497-2.489l0.998-0.747
			l1.243,0.125l1.868-1.868l0.125,1.495l2.735,0.871v1.369h-2.237l-3.36,1.741l-2.738,1.494l0.747,1.617l2.488,0.497l1.37,0.622
			l1.493-0.995l0.123,4.231l-4.232,0.87l-4.475-1.245l-1.743,1.37l0.746,0.746l-1.37-0.249l-4.353-1.617l-1.245,0.125l-0.995-1.617
			v-1.992h-2.241l-1.244-0.249l-3.982,0.874l-3.111-0.252l-1.369,0.749l-0.871,0.125l-0.499,1.615l-2.861,1.991l-3.983,2.985
			l-0.249,3.856l-1.121,2.489l0.125,1.491l0.996,1.744l2.862,4.852l2.986,1.369l4.978,0.373l-0.25-2.116l-1.12-0.621l0.498-1.119
			l0.872,0.995l0.87,2.612l3.734,0.249l1.492,1.491l2.115,0.874l0.25,3.607l2.241,2.862L3.88,133.2l-1.866,2.241l1.905,2.964
			C-19.064,137.574-37.446,118.688-37.446,95.5z M20.216,135.856l5.192-3.773l-1.865-4.606l5.973-7.836l1.865-4.979l0.87-2.738
			l-3.107,1.494l-1.868,0.374l-4.603-2.863l-1.37-3.11l-1.743-1.743l-2.238-4.976l1.864,1.493l3.486,3.856l1.244,1.743l2.486,1.243
			l0.749,3.235l2.987-1.989l3.608-4.481l1.741-4.604l-1.369-1.118l-0.747-1.369l-0.871,1.617l-1.742,1.99l-2.488-2.737l-0.746-2.113
			l1.742,0.372l1.74,0.871l2.489-0.871l1.495,0.497l3.978-2.737l2.244,1.246l1.368-0.749l2.975,4.686l1.475-1.406l0.028-1.784
			l0.124-5.353l0.915-2.535c0.223,1.769,0.35,3.568,0.35,5.398C48.446,114.047,36.687,129.85,20.216,135.856z"/>
	</g>
</g>
<g id="Email" display="none">
	<path display="inline" fill="#C69B3C" d="M47.122,67.115c-3.653-6.645-8.894-11.845-15.577-15.456
		c-6.611-3.572-14.233-5.384-22.655-5.384c-9.948,0-18.921,2.212-26.669,6.574c-7.804,4.396-13.896,10.677-18.109,18.669
		c-4.17,7.912-6.285,17.028-6.285,27.098c0,14.011,4.041,25.136,12.011,33.067c7.966,7.926,19.2,11.944,33.39,11.944
		c9.403,0,17.949-1.653,25.401-4.914l1.793-0.784v-13.678l-4.056,1.543c-7.982,3.037-15.768,4.577-23.138,4.577
		c-10.329,0-18.276-2.762-23.622-8.208c-5.361-5.46-8.08-13.515-8.08-23.938c0-7.812,1.516-14.762,4.506-20.656
		c2.931-5.779,7.232-10.286,12.783-13.398C-5.56,61.019,1.194,59.42,8.89,59.42c6.021,0,11.398,1.253,15.985,3.723
		c4.568,2.46,7.996,5.87,10.474,10.424c2.484,4.567,3.745,10.007,3.745,16.168c0,5.842-0.947,10.59-2.815,14.113
		c-2.081,3.923-4.177,4.377-5.573,4.377c-1.534,0-4.391,0-4.391-6.89v-1.142l1.506-28.318l-2.202-0.701
		c-2.701-0.859-5.757-1.542-9.082-2.024c-3.311-0.482-6.332-0.727-8.979-0.727c-7.941,0-14.469,2.704-19.403,8.038
		c-4.875,5.266-7.347,12.141-7.347,20.434c0,7.196,1.808,13.037,5.374,17.362c3.708,4.498,8.864,6.778,15.326,6.778
		c4.353,0,8.202-1.081,11.441-3.212c1.594-1.048,3.011-2.302,4.243-3.753c0.752,1.226,1.693,2.338,2.82,3.33
		c2.735,2.412,6.108,3.635,10.027,3.635c4.536,0,8.607-1.438,12.101-4.277c3.364-2.733,5.989-6.581,7.801-11.437
		c1.746-4.685,2.63-9.893,2.63-15.478C52.571,81.345,50.737,73.698,47.122,67.115z M3.006,108.225
		c-3.874,0-7.833-1.319-7.833-11.108c0-5.185,1.146-9.218,3.405-11.985c2.142-2.621,5.08-3.896,8.98-3.896
		c1.965,0,3.837,0.158,5.592,0.474l-0.642,11.96C11.672,108.225,5.376,108.225,3.006,108.225z"/>
</g>
<g id="Forrst" display="none">
	<g display="inline">
		<polygon fill="#5B9A68" points="42.295,133.702 5.5,45.5 -31.295,133.702 		"/>
		<rect x="1.613" y="97.159" fill="#4D6F54" width="8.076" height="47.874"/>
		<polygon fill="#4D6F54" points="-5.982,106.725 -7.396,108.819 2.067,115.304 3.506,113.21 		"/>
		<polygon fill="#4D6F54" points="18.371,105.009 17.109,102.686 7.923,107.531 9.16,109.878 		"/>
		<polygon fill="#4D6F54" points="8.024,117.223 9.134,119.469 24.705,111.67 23.596,109.424 		"/>
	</g>
</g>
<g id="github" display="none">
	<g display="inline">
		<path fill="#8DD2F0" d="M32.456,130.429c0,5.143-11.824,9.312-26.664,9.312s-26.87-4.169-26.87-9.312
			c0-5.142,12.03-9.311,26.87-9.311S32.456,125.287,32.456,130.429"/>
		<path fill="#69ABDE" d="M10.696,139.586v-4.909c0-3.155,2.212-4.115,2.212-5.281c0-2.006-4.038,0.19-5.282,1.44
			c-1.895,1.903-1.68,2.648-1.634,5.839c0.012,0.826,0.015,1.915,0.014,3.065C7.608,139.736,9.175,139.684,10.696,139.586"/>
		<path fill="#69ABDE" d="M-1.626,139.382c-0.01-2.71-0.024-6.365-0.024-7.8c0-2.752-3.91-4.321-5.787-4.321
			c-0.952,0-2.135,0.049-2.135,0.552c0,1.274,3.575,2.02,3.575,4.67c0,1.459-0.021,4.377-0.036,6.311
			C-4.628,139.032-3.155,139.229-1.626,139.382"/>
		<path fill="#69ABDE" d="M16.697,132.379c0.035-2.503,3.704-3.704,3.567-4.51c-0.137-0.805-3.072-0.674-4.442-0.196
			c-3.886,1.354-3.498,4.587-3.498,4.587l-0.104,7.212c1.575-0.135,3.093-0.318,4.541-0.545
			C16.743,134.533,16.68,133.688,16.697,132.379"/>
		<path fill="#69ABDE" d="M3.998,132.354c-1.559-3.446-6.266-4.63-6.266-3.062c0,1.056,0.952,0.721,1.595,3.087
			c0.26,0.955,0.4,4.094,0.476,7.13c1.609,0.127,3.274,0.203,4.979,0.226C4.744,136.734,4.558,133.6,3.998,132.354"/>
		<path fill="#8DD2F0" d="M-24.885,106.629c-1.657,0-0.007-2.603,0-3.772C-24.857,104.059-23.228,106.629-24.885,106.629"/>
		<g>
			<defs>
				<polygon id="SVGID_59_" points="-42.444,129.285 53.204,129.285 53.204,55.742 -42.444,55.742 -42.444,129.285 				"/>
			</defs>
			<clipPath id="SVGID_60_">
				<use xlink:href="#SVGID_59_"  overflow="visible"/>
			</clipPath>
			<path clip-path="url(#SVGID_60_)" fill="#FAC6A8" d="M15.926,77.495c8.286,0,10.391,5.864,10.391,10.392
				c0,6.171-3.104,10.645-10.831,11.801c-0.949,0.142-1.968,0.234-3.058,0.273c-4.665,0.169-9.328,0.146-13.169-0.002
				c-0.558-0.021-1.105-0.056-1.642-0.104c-8.064-0.705-13.791-4.352-13.791-12.519c0-3.093,2.091-9.842,10.527-9.842
				c0.835,0,6.291,0.515,11.558,0.515C10.588,78.01,15.319,77.495,15.926,77.495"/>
			<path clip-path="url(#SVGID_60_)" fill="#12100B" d="M52.952,90.977c0.167,0.033,0.278,0.193,0.247,0.36
				c-0.027,0.148-0.158,0.254-0.303,0.254c-0.019,0-0.039-0.002-0.058-0.005c-4.208-0.777-10.331-1.634-20.788-1.537
				c-0.184,0.607-0.389,1.186-0.614,1.737c3.56,0.119,13.336,0.5,21.307,2.938c0.165,0.05,0.256,0.223,0.206,0.388
				c-0.041,0.131-0.162,0.218-0.294,0.218c-0.031,0-0.062-0.004-0.091-0.015c-8.083-2.472-18.071-2.811-21.392-2.92
				c-2.576,5.657-7.562,8.155-15.396,9.33l-0.292-2.037c7.727-1.156,10.831-5.63,10.831-11.801c0-4.527-2.105-10.392-10.391-10.392
				c-0.607,0-5.338,0.515-10.015,0.515c-5.268,0-10.723-0.515-11.558-0.515c-8.437,0-10.527,6.749-10.527,9.842
				c0,8.167,5.727,11.813,13.791,12.519l-0.225,2.254c-9.587-0.972-15.287-4.344-18.256-9.735
				c-10.194,0.245-15.98,1.691-20.221,2.752c-0.309,0.078-0.609,0.152-0.901,0.226c-0.025,0.006-0.049,0.009-0.074,0.009
				c-0.14,0-0.265-0.095-0.3-0.234c-0.041-0.165,0.062-0.334,0.226-0.375c0.292-0.072,0.593-0.146,0.899-0.225
				c4.229-1.056,9.978-2.494,20.05-2.762c-0.278-0.557-0.529-1.134-0.753-1.728c-3.917-0.033-15.99,0.522-20.124,1.545
				c-0.025,0.007-0.049,0.009-0.074,0.009c-0.138,0-0.265-0.095-0.3-0.235c-0.039-0.164,0.062-0.333,0.226-0.374
				c4.097-1.013,15.877-1.574,20.05-1.564c-0.938-2.762-1.354-5.924-1.354-9.457c0-6.271,1.955-8.638,4.579-11.981
				c-2.006-7.15,0.72-12.038,0.72-12.038s4.218-0.874,12.192,4.836c4.321-1.852,15.844-2.006,21.297-0.411
				c3.344-2.213,9.465-5.351,11.935-4.472c0.669,1.076,2.109,4.214,0.875,11.107c0.838,1.513,5.196,4.732,5.212,13.838
				c-0.07,3.358-0.42,6.193-1.068,8.591C42.625,89.343,48.74,90.201,52.952,90.977"/>
			<path clip-path="url(#SVGID_60_)" fill="#12100B" d="M16.698,122.198c0.033,2.504,3.704,3.704,3.566,4.511
				c-0.138,0.805-3.072,0.675-4.443,0.195c-3.885-1.354-3.496-4.586-3.496-4.586l-0.129-8.873c0,0,0.266-4.776-1.5-4.776v14.523
				c0,3.156,2.212,4.115,2.212,5.282c0,2.006-4.037-0.189-5.282-1.44c-1.896-1.903-1.68-5.94-1.634-9.133
				c0.043-3.082-0.029-9.825-0.029-9.825l-1.286,0.027c0,0,0.527,14.729-0.679,17.412c-1.56,3.446-6.266,4.632-6.266,3.062
				c0-1.056,1.159-0.72,1.801-3.087c0.547-2.012,0.36-17.027,0.36-17.027s-1.508,0.892-1.508,3.704
				c0,1.286-0.035,8.641-0.035,10.827c0,2.754-3.91,4.321-5.789,4.321c-0.951,0-2.134-0.047-2.134-0.551
				c0-1.274,3.574-2.021,3.574-4.669c0-2.297-0.049-8.204-0.049-8.204s-1.802,0.309-4.375,0.309c-6.482,0-8.531-4.136-9.506-6.451
				c-1.27-3.014-2.916-4.43-4.665-5.562c-1.074-0.696-1.321-1.515-0.078-1.749c5.737-1.081,7.204,6.506,11.035,7.716
				c2.735,0.862,6.251,0.49,8-0.642c0.231-2.317,1.902-4.321,3.292-5.377c-0.088-0.008-0.177-0.017-0.263-0.026l0.225-2.254
				c0.537,0.048,1.084,0.083,1.642,0.104c3.842,0.148,8.505,0.171,13.169,0.002c1.09-0.039,2.109-0.132,3.058-0.273l0.292,2.037
				c-0.959,0.144-1.963,0.27-3.008,0.377c3.104,1.954,3.996,4.407,3.996,11.043S16.678,120.672,16.698,122.198"/>
		</g>
		<path fill="#FFFFFF" d="M-1.976,87.835c0-3.627-1.973-6.567-4.407-6.567s-4.407,2.94-4.407,6.567s1.973,6.156,4.407,6.156
			S-1.976,91.462-1.976,87.835"/>
		<path fill="#FFFFFF" d="M21.841,87.835c0-3.627-1.973-6.567-4.407-6.567s-4.407,2.94-4.407,6.567s1.973,6.156,4.407,6.156
			S21.841,91.462,21.841,87.835"/>
		<path fill="#B43B31" d="M5.208,97.935c-1.575,0-2.727-1.353-2.727-2.058c0-0.17,0.138-0.309,0.309-0.309
			c0.171,0,0.309,0.139,0.309,0.309c0,0.349,0.875,1.44,2.109,1.44c1.07,0,1.869-0.761,1.869-1.44c0-0.17,0.139-0.309,0.309-0.309
			c0.171,0,0.309,0.139,0.309,0.309C7.695,96.851,6.674,97.935,5.208,97.935"/>
		<path fill="#B43B31" d="M6.238,93.322c0,0.587-0.477,1.063-1.064,1.063c-0.587,0-1.063-0.477-1.063-1.063s0.476-1.063,1.063-1.063
			C5.761,92.259,6.238,92.735,6.238,93.322"/>
		<path fill="#B43B31" d="M-3.485,87.835c0-2.349-1.297-4.253-2.898-4.253c-1.6,0-2.898,1.904-2.898,4.253s1.298,4.253,2.898,4.253
			C-4.783,92.088-3.485,90.184-3.485,87.835"/>
		<path fill="#B43B31" d="M20.333,87.835c0-2.349-1.298-4.253-2.898-4.253s-2.898,1.904-2.898,4.253s1.297,4.253,2.898,4.253
			S20.333,90.184,20.333,87.835"/>
		<path fill="#C6E3DA" d="M-22.099,101.219c0,0.256-0.311,0.463-0.695,0.463c-0.383,0-0.694-0.207-0.694-0.463
			s0.311-0.463,0.694-0.463C-22.41,100.756-22.099,100.963-22.099,101.219"/>
		<path fill="#C6E3DA" d="M-19.938,102.394c0,0.255-0.311,0.463-0.695,0.463c-0.383,0-0.694-0.208-0.694-0.463
			c0-0.256,0.311-0.464,0.694-0.464C-20.249,101.93-19.938,102.138-19.938,102.394"/>
		<path fill="#C6E3DA" d="M-18.618,103.963c0,0.255-0.311,0.463-0.694,0.463c-0.383,0-0.694-0.208-0.694-0.463
			c0-0.256,0.311-0.463,0.694-0.463C-18.929,103.5-18.618,103.707-18.618,103.963"/>
		<path fill="#C6E3DA" d="M-17.46,105.737c0,0.255-0.311,0.463-0.694,0.463c-0.384,0-0.695-0.208-0.695-0.463
			c0-0.256,0.311-0.464,0.695-0.464C-17.771,105.273-17.46,105.481-17.46,105.737"/>
		<path fill="#C6E3DA" d="M-16.14,107.409c0,0.256-0.311,0.463-0.694,0.463c-0.384,0-0.695-0.207-0.695-0.463
			s0.311-0.463,0.695-0.463C-16.451,106.946-16.14,107.153-16.14,107.409"/>
		<path fill="#C6E3DA" d="M-14.357,108.832c0,0.256-0.311,0.463-0.694,0.463s-0.694-0.207-0.694-0.463s0.311-0.463,0.694-0.463
			S-14.357,108.576-14.357,108.832"/>
		<path fill="#C6E3DA" d="M-11.862,109.758c0,0.256-0.311,0.463-0.694,0.463c-0.384,0-0.694-0.207-0.694-0.463
			s0.311-0.463,0.694-0.463C-12.173,109.295-11.862,109.502-11.862,109.758"/>
		<path fill="#C6E3DA" d="M-9.358,109.758c0,0.256-0.311,0.463-0.694,0.463c-0.383,0-0.694-0.207-0.694-0.463
			s0.311-0.463,0.694-0.463C-9.669,109.295-9.358,109.502-9.358,109.758"/>
		<path fill="#C6E3DA" d="M-6.846,109.364c0,0.255-0.311,0.463-0.694,0.463c-0.384,0-0.694-0.208-0.694-0.463
			c0-0.256,0.311-0.463,0.694-0.463C-7.157,108.901-6.846,109.108-6.846,109.364"/>
	</g>
</g>
<g id="tumblr" display="none">
	<path display="inline" fill-rule="evenodd" clip-rule="evenodd" fill="#2B4663" d="M30.366,86.39c-7.798,0-15.224,0-23.118,0
		c0,11.794-0.362,23.152,0.159,34.473c0.247,5.343,4.268,8.693,9.722,8.279c5.546-0.421,11.009-1.938,16.939-3.054
		c0,3.605-0.112,13.701-0.112,13.701s-1.837,1.245-2.38,1.484c-11.806,5.217-23.912,6.63-36.057,1.363
		c-8.168-3.542-12.39-9.939-12.311-19.073c0.107-12.169,0.026-24.341,0.026-36.791c-3.849-0.22-7.108-0.405-11.026-0.629
		c0-3.988-0.151-7.685,0.09-11.354c0.075-1.147,1.894-3.237,1.894-3.237s0.535-0.213,0.797-0.323
		c8.073-3.411,12.653-9.33,15.368-16.633c0.936-2.513,2.586-8.667,2.877-9.17c4.208,0,8.503,0,13.481,0c0,8.342,0,16.509,0,25.377
		c8.23,0,15.805,0,23.65,0C30.366,76.177,30.366,80.849,30.366,86.39z"/>
</g>
<g id="google-plus" display="none">
	<g display="inline">
		<linearGradient id="SVGID_61_" gradientUnits="userSpaceOnUse" x1="5.6641" y1="145.043" x2="5.6641" y2="45.7324">
			<stop  offset="0" style="stop-color:#A5281A"/>
			<stop  offset="1" style="stop-color:#DA4A38"/>
		</linearGradient>
		<path fill="url(#SVGID_61_)" d="M55.436,132.601c0,6.872-5.571,12.442-12.443,12.442h-74.657c-6.872,0-12.443-5.57-12.443-12.442
			V57.942c0-6.871,5.571-12.442,12.443-12.442h74.657c6.872,0,12.443,5.571,12.443,12.442V132.601z"/>
		<defs>
			<filter id="Adobe_OpacityMaskFilter" filterUnits="userSpaceOnUse" x="-59.864" y="52.276" width="116.3" height="116.384">
				<feColorMatrix  type="matrix" values="1 0 0 0 0  0 1 0 0 0  0 0 1 0 0  0 0 0 1 0"/>
			</filter>
		</defs>
		<mask maskUnits="userSpaceOnUse" x="-59.864" y="52.276" width="116.3" height="116.384" id="SVGID_62_">
			<g filter="url(#Adobe_OpacityMaskFilter)">
				<path fill="#F5F5F5" d="M55.436,132.601c0,6.872-5.571,12.442-12.443,12.442h-74.657c-6.872,0-12.443-5.57-12.443-12.442V57.942
					c0-6.871,5.571-12.442,12.443-12.442h74.657c6.872,0,12.443,5.571,12.443,12.442V132.601z"/>
			</g>
		</mask>
		<g mask="url(#SVGID_62_)">
			<g>
				<polygon fill="#FFFFFF" points="31.605,94.217 31.605,78.663 16.051,78.663 16.051,69.887 31.605,69.887 31.605,54.331 
					40.381,54.331 40.381,69.887 55.936,69.887 55.936,78.663 40.381,78.663 40.381,94.217 				"/>
				<path fill="#A5281A" d="M39.881,54.831v15.556h15.554v7.776H39.881v15.554h-7.776V78.163H16.551v-7.776h15.554V54.831H39.881
					 M40.881,53.831h-1h-7.776h-1v1v14.556H16.551h-1v1v7.776v1h1h14.554v14.554v1h1h7.776h1v-1V79.163h14.554h1v-1v-7.776v-1h-1
					H40.881V54.831V53.831L40.881,53.831z"/>
			</g>
			<g>
				<linearGradient id="SVGID_63_" gradientUnits="userSpaceOnUse" x1="-22.1763" y1="54.541" x2="-22.1763" y2="169.0872">
					<stop  offset="0" style="stop-color:#FFFFFF"/>
					<stop  offset="1" style="stop-color:#F9DAD6"/>
				</linearGradient>
				<path fill="url(#SVGID_63_)" d="M-22.75,168.16c-18.195,0-36.614-7.284-36.614-21.207c0-12.999,13.58-26.916,33.796-26.916
					c1.079,0,2.112-0.014,3.132-0.027c0.591-0.008,1.177-0.016,1.765-0.021c-2.153-2.146-4.129-4.515-4.129-8.301
					c0-1.921,0.49-3.941,1.458-6.016c-0.731,0.043-1.571,0.078-2.438,0.078c-15.525,0-25.956-10.442-25.956-25.983
					c0-14.379,14.89-26.991,31.865-26.991h34.882l-8.486,8.908h-7.365c5.268,3.783,8.365,10.583,8.365,18.563
					c0,6.853-3.511,13.22-10.154,18.412c-5.715,4.464-6.579,6.165-6.579,9.695c0,2.739,5.844,7.088,8.984,9.424l0.743,0.554
					c11.444,8.583,13.291,14.08,13.291,23.916C13.812,154.985,0.136,168.16-22.75,168.16z M-21.472,125.018
					c-13.1,0-24.167,8.311-24.167,18.146c0,10.298,10.022,18.364,22.815,18.364c16.465,0,25.167-6.169,25.167-17.84
					c0-1.164-0.141-2.349-0.418-3.521c-1.223-4.787-5.741-7.843-11.461-11.712c-0.979-0.662-1.996-1.35-3.042-2.076
					c-2.712-0.871-5.59-1.328-8.557-1.36L-21.472,125.018z M-25.338,59.254c-3.44,0-6.488,1.401-8.813,4.053
					c-3.336,3.803-4.762,9.702-3.91,16.185c1.471,11.185,9.559,19.829,18.812,20.107c0.15,0.005,0.299,0.007,0.447,0.007
					c3.498,0,6.455-1.264,8.553-3.655c2.928-3.338,4.076-8.711,3.233-15.129C-8.598,68.789-16.312,59.52-24.961,59.26
					C-25.087,59.256-25.213,59.254-25.338,59.254z"/>
				<path fill="#A5281A" d="M13.845,53.276l-7.533,7.908H-2.54c6.245,3.576,9.565,10.943,9.565,19.063
					c0,7.454-4.129,13.459-9.962,18.019c-5.691,4.445-6.771,6.307-6.771,10.089c0,3.227,6.801,8.032,9.927,10.378
					c10.887,8.165,13.091,13.302,13.091,23.516c0,12.74-13.732,25.411-36.062,25.411c-19.586,0-36.114-7.969-36.114-20.707
					c0-12.938,13.711-26.416,33.296-26.416c2.135,0,4.09-0.054,6.116-0.054c-2.681-2.606-4.848-4.855-4.848-8.795
					c0-2.34,0.747-4.569,1.791-6.571c-1.064,0.075-2.151,0.134-3.27,0.134c-16.087,0-25.456-11.303-25.456-25.483
					c0-13.876,14.256-26.491,31.365-26.491C-11.052,53.276,13.845,53.276,13.845,53.276 M-18.802,100.105
					c8.798,0,13.822-7.619,12.282-19.35c-1.569-11.932-9.341-21.723-18.426-21.996c-0.131-0.004-0.262-0.006-0.392-0.006
					c-8.869,0-14.764,9.04-13.219,20.803c1.569,11.934,10.204,20.269,19.293,20.542C-19.108,100.104-18.955,100.105-18.802,100.105
					 M-22.824,162.028c19.034,0,25.667-8.045,25.667-18.34c0-1.242-0.153-2.458-0.432-3.636c-1.487-5.824-7.416-9.017-14.765-14.126
					c-2.673-0.866-5.616-1.373-8.775-1.407c-0.115-0.001-0.229-0.002-0.343-0.002c-13.389,0-24.667,8.643-24.667,18.646
					C-46.139,153.458-36.361,162.028-22.824,162.028 M16.178,52.276h-2.333H-19.87c-17.241,0-32.365,12.847-32.365,27.491
					c0,7.342,2.475,14,6.969,18.747c4.791,5.062,11.53,7.736,19.487,7.736c0.571,0,1.129-0.016,1.653-0.038
					c-0.78,1.879-1.174,3.715-1.174,5.476c0,3.489,1.571,5.804,3.457,7.813c-0.199,0.003-0.399,0.005-0.599,0.008
					c-1.018,0.014-2.049,0.027-3.125,0.027c-20.515,0-34.296,14.176-34.296,27.416c0,12.578,15.608,21.707,37.114,21.707
					c10.561,0,20.154-2.889,27.012-8.134c6.387-4.885,10.05-11.546,10.05-18.277c0-11.146-2.9-16.372-13.491-24.315l-0.745-0.556
					c-2.628-1.955-8.782-6.534-8.782-9.022c0-3.342,0.838-4.968,6.386-9.301C4.448,93.764,8.026,87.261,8.026,80.248
					c0-7.545-2.723-14.062-7.417-18.063h5.702H6.74l0.295-0.311l7.533-7.908L16.178,52.276L16.178,52.276z M-18.802,99.105
					c-0.143,0-0.287-0.002-0.432-0.007c-9.011-0.271-16.892-8.729-18.331-19.673c-0.833-6.339,0.548-12.095,3.79-15.79
					c2.228-2.539,5.146-3.882,8.438-3.882c0.12,0,0.241,0.002,0.362,0.006c8.406,0.253,15.914,9.335,17.464,21.126
					c0.824,6.274-0.281,11.507-3.113,14.734C-12.625,97.9-15.452,99.105-18.802,99.105L-18.802,99.105z M-22.824,161.028
					c-12.513,0-22.315-7.847-22.315-17.864c0-9.565,10.838-17.646,23.667-17.646l0.332,0.002c2.891,0.031,5.696,0.474,8.339,1.313
					c1.026,0.712,2.024,1.387,2.985,2.037c5.853,3.959,10.081,6.818,11.259,11.43c0.264,1.118,0.4,2.264,0.4,3.389
					C1.844,155.032-6.686,161.028-22.824,161.028L-22.824,161.028z"/>
			</g>
		</g>
	</g>
</g>
<g id="app.net" display="none">
	<polygon display="inline" fill="#898D90" points="5.684,86.315 -19,61.632 -43.684,86.315 -19,110.998 5.684,135.684 
		30.368,110.998 55.053,86.315 30.368,61.632 	"/>
</g>
<g id="delicious" display="none">
	<rect x="5.5" y="45.5" display="inline" fill-rule="evenodd" clip-rule="evenodd" fill="#326AD1" width="50" height="50"/>
	<rect x="-44.5" y="95.5" display="inline" fill-rule="evenodd" clip-rule="evenodd" fill="#020202" width="50" height="50"/>
	<rect x="5.5" y="95.5" display="inline" fill-rule="evenodd" clip-rule="evenodd" fill="#DDDDDD" width="50" height="50"/>
	<rect x="-44.5" y="45.5" display="inline" fill-rule="evenodd" clip-rule="evenodd" fill="#FFFFFF" width="50" height="50"/>
</g>
</svg>
