<?xml version="1.0" encoding="utf-8"?>
<!-- Generator: Adobe Illustrator 16.0.1, SVG Export Plug-In . SVG Version: 6.00 Build 0)  -->
<!DOCTYPE svg PUBLIC "-//W3C//DTD SVG 1.1//EN" "http://www.w3.org/Graphics/SVG/1.1/DTD/svg11.dtd">
<svg version="1.1" xmlns="http://www.w3.org/2000/svg" xmlns:xlink="http://www.w3.org/1999/xlink" x="0px" y="0px" width="100px"
	 height="100px" viewBox="-44.5 45.5 100 100" enable-background="new -44.5 45.5 100 100" xml:space="preserve">
<g id="Heart" display="none">
	<path display="inline" fill="#CECECE" stroke="#FFFFFF" stroke-miterlimit="10" d="M-4.025,91.945c0,0-4.303-1.776-7.297,3.275
		c0,0-2.338-0.937-3.648,1.588c0,0-4.209,0.281-5.145,5.053c0,0-1.029,2.525-1.965,3.367c0,0-0.468,4.209,4.396,9.916
		c0,0,5.987,10.383,8.7,12.254c0,0,4.958,5.612,5.145,7.108c0,0,3.087,3.274,7.67,4.304c0,0,7.857,1.871,9.916-2.338
		c0,0,4.959-6.175,6.549-11.507c0,0,5.051-11.319,5.238-11.786c0,0,2.34-4.209-0.843-9.447c0,0-6.642,3.086-10.009-1.498
		c0,0-3.555-1.401-4.303-2.992c0,0-3.461-2.059-5.895-1.403c0,0-1.871-2.058-3.461-2.151l-0.188-1.31
		C0.837,94.378-2.81,95.033-4.025,91.945z"/>
	<path display="inline" fill="#CECECE" stroke="#FFFFFF" stroke-miterlimit="10" d="M24.879,102.891c0,0,2.713-4.303,0.468-7.483
		c0,0,0.094-2.899-2.619-4.304c0,0-1.123-3.086-2.899-2.524c0,0-1.496,0-1.31,1.87c0,0-1.685,0.375-1.685,1.31
		c0,0-3.088,1.029-2.713,3.742c0,0-2.994,2.526,0.654,5.146c0,0,0.374,2.34,4.115,3.556C18.892,104.2,23.103,104.389,24.879,102.891
		z"/>
	<path display="inline" fill="#CECECE" stroke="#FFFFFF" stroke-miterlimit="10" d="M-22.08,102.984c0,0-1.964-0.75-1.31-4.211
		c0,0-3.929-15.34,6.829-21.328c0,0,3.929-5.424,5.893-3.834c0,0,2.152,0.935,0.656,4.957c0,0,3.18,3.088,1.871,5.427
		c0,0,1.403,1.87-0.188,3.087c0,0,0.936,2.338-1.122,3.555c0,0-2.339,1.59-2.245,3.555c0,0-2.9-0.375-3.648,1.685
		c0,0-5.051,0.842-5.332,5.331C-20.677,101.206-21.051,103.171-22.08,102.984z"/>
	<path display="inline" fill="#CECECE" stroke="#FFFFFF" stroke-miterlimit="10" d="M-16.281,76.137c0,0,3.041-3.835,5.145-3.32
		c0,0,2.385,0.326,2.105,4.115l-0.468,1.592l0.702,0.795c0,0,1.216-6.127,2.994-5.895c0,0,3.694-3.929,2.712-10.523
		c0,0-4.256,0.141-10.103,6.502C-13.192,69.402-16.374,73.236-16.281,76.137z"/>
	<path display="inline" fill="#CECECE" stroke="#FFFFFF" stroke-miterlimit="10" d="M26.002,95.454c0,0,1.965-5.894,0.562-9.495
		c0,0,1.685-2.434,2.946,0c0,0,1.029,1.402,1.777,0.234l1.17,1.027c0,0,1.59,0.281,1.776-1.074l-1.964-3.229l2.759-0.094
		c0,0,1.029-1.87,0.047-3.133l-2.524-0.375l1.402-1.215c0,0,0.141-1.824-1.123-1.73l-1.824,2.572l-12.16,2.386
		c0,0-2.76-0.281-3.508,3.694c0,0-1.215,5.612-4.49,10.01c0,0,1.217,3.087,0.982,4.256c0,0-0.796,0.889,2.432,2.338l0.048-0.607
		c0,0-2.386-1.824-1.777-3.881c0,0,0.468-1.543,1.029-1.73c0,0-0.421-2.526,2.807-4.069c0,0,0.654-1.31,1.589-1.356
		c0,0,0.422-2.105,1.778-2.059c0,0,2.104-0.561,3.414,2.9C23.148,90.824,25.58,91.712,26.002,95.454z"/>
	<path display="inline" fill="#CECECE" stroke="#FFFFFF" stroke-miterlimit="10" d="M31.801,71.646c0,0-7.389-0.467-12.723,1.685
		c0,0-4.49,3.555-9.914,2.526c0,0-3.274,0.069-4.117-0.586c0,0-2.783,1.521-3.228,4.607c0,0,3.882-0.749,4.162,2.432
		c0,0-0.093,4.49-4.021,5.707c0,0-3.648,0.653-5.426,3.086c0,0,0.655,3.273,4.584,2.619c0,0,1.309-3.647,4.771-3.742
		c0,0-4.116,1.777-4.209,5.145c0,0,1.964,0.936,3.087,2.059c0,0,2.992-0.281,6.455,1.871c0,0,0-2.433-1.123-4.022
		c0,0,4.21-6.081,4.678-10.384c0,0,0.748-4.396,4.021-3.836l11.975-2.338C30.772,78.477,32.549,74.641,31.801,71.646z M31.281,75.18
		c-0.244,1.648-0.66,2.952-0.929,2.912s-0.288-1.408-0.043-3.056s0.661-2.952,0.93-2.911C31.508,72.164,31.525,73.532,31.281,75.18z
		"/>
	<g display="inline">
		<path fill="#CECECE" stroke="#FFFFFF" stroke-miterlimit="10" d="M-6.832,63.602c0,0,2.479-1.543,4.115-1.121
			c0,0,1.497,5.145-2.338,11.317c0,0,3.181-4.302,5.146-5.425c0,0-1.59-7.766-4.21-12.161c-2.619-4.396-1.683-6.455-1.683-6.455
			s-2.526-1.029-3.648,1.029l2.151,6.642c0,0-5.52-5.52-11.226-2.432c0,0-1.216,2.245,1.31,3.273c0,0,1.871-2.338,6.548,0.842
			C-10.667,59.111-7.581,61.357-6.832,63.602z M-7.502,50.771c-0.794,0.194-1.49,0.138-1.554-0.125
			c-0.064-0.265,0.526-0.634,1.32-0.829c0.794-0.193,1.489-0.137,1.554,0.127C-6.118,50.209-6.709,50.579-7.502,50.771z"/>
		<path fill="#CECECE" stroke="#FFFFFF" stroke-miterlimit="10" d="M22.26,57.055c0,0-4.678-4.117-9.354-1.777
			c0,0-6.08,2.525-7.39,10.383l-0.842,0.842c0,0,2.245-13.95,3.274-15.061c0,0-1.402-1.965-3.929-0.75c0,0-2.9,6.83-3.087,16.933
			l0.047,0.888c0,0-2.76,1.871-5.8,5.893l-0.889-0.279c0,0-1.73-0.046-2.573,5.893c0,0,1.638,1.685,0.842,3.977
			c0,0,1.029,1.684-0.234,3.461c0,0,0.421,2.104-0.795,3.368c0,0-2.105,0.842-2.572,2.853c0,0,2.759-3.508,6.734-2.525
			c0,0,1.872-2.807,5.613-3.977c0,0-2.713-9.447,4.491-13.002c0,0,5.237-1.871,8.139,1.123c0,0,4.771-1.777,5.238-2.993
			c0,0-1.217-4.864-9.354-6.642c0,0,1.028-10.29,10.853-6.268C20.67,59.393,22.728,58.738,22.26,57.055z M4.479,50.839
			c0.038-0.269,0.724-0.395,1.532-0.282c0.811,0.113,1.436,0.424,1.396,0.691c-0.035,0.27-0.723,0.395-1.531,0.281
			C5.067,51.417,4.441,51.107,4.479,50.839z M21.586,58.428c-0.449,0.43-0.965,0.621-1.152,0.426
			c-0.188-0.196,0.023-0.705,0.474-1.135c0.449-0.431,0.966-0.621,1.152-0.425C22.248,57.49,22.035,57.998,21.586,58.428z"/>
	</g>
</g>
<g id="Layer_2">
	<polygon fill="#FFD800" stroke="#FFFFFF" stroke-miterlimit="10" points="40.5,87.5 10.5,87.5 10.5,50.5 -29.5,103.5 0.5,103.5 
		0.5,139.5 	"/>
</g>
</svg>
